solid cube trinket box smoothed
facet normal 0.0 0.0 1.0
  outer loop
    vertex -0.25489610671796115 -0.25489610671796115 1.0
    vertex 0.0 0.0 1.0
    vertex -0.25489610671796115 2.254896106717961 1.0
  endloop
endfacet
facet normal 0.0 0.0 1.0
  outer loop
    vertex 0.0 0.0 1.0
    vertex -0.25489610671796115 -0.25489610671796115 1.0
    vertex 2.254896106717961 -0.25489610671796115 1.0
  endloop
endfacet
facet normal 0.0 0.0 1.0
  outer loop
    vertex 0.0 0.0 1.0
    vertex 2.254896106717961 -0.25489610671796115 1.0
    vertex 2.0 0.0 1.0
  endloop
endfacet
facet normal 0.0 0.0 1.0
  outer loop
    vertex 2.0 0.0 1.0
    vertex 2.254896106717961 -0.25489610671796115 1.0
    vertex 2.0 2.0 1.0
  endloop
endfacet
facet normal 0.0 0.0 1.0
  outer loop
    vertex -0.25489610671796115 2.254896106717961 1.0
    vertex 0.0 2.0 1.0
    vertex 2.254896106717961 2.254896106717961 1.0
  endloop
endfacet
facet normal 0.0 0.0 1.0
  outer loop
    vertex 0.0 2.0 1.0
    vertex -0.25489610671796115 2.254896106717961 1.0
    vertex 0.0 0.0 1.0
  endloop
endfacet
facet normal 0.0 0.0 1.0
  outer loop
    vertex 2.254896106717961 2.254896106717961 1.0
    vertex 0.0 2.0 1.0
    vertex 2.0 2.0 1.0
  endloop
endfacet
facet normal 0.0 0.0 1.0
  outer loop
    vertex 2.254896106717961 2.254896106717961 1.0
    vertex 2.0 2.0 1.0
    vertex 2.254896106717961 -0.25489610671796115 1.0
  endloop
endfacet
facet normal -0.0 1.0 -2.497115045802269e-16
  outer loop
    vertex -0.25489610671796115 2.254896106717961 1.0
    vertex 2.254896106717961 2.2548961067179607 -0.1875
    vertex -0.25489610671796115 2.2548961067179607 -0.1875
  endloop
endfacet
facet normal -0.0 1.0 -2.497115045802269e-16
  outer loop
    vertex 2.254896106717961 2.2548961067179607 -0.1875
    vertex -0.25489610671796115 2.254896106717961 1.0
    vertex 2.254896106717961 2.254896106717961 1.0
  endloop
endfacet
facet normal 1.0 -0.0 -0.0
  outer loop
    vertex 2.254896106717961 2.2548961067179607 -0.1875
    vertex 2.254896106717961 -0.25489610671796115 1.0
    vertex 2.254896106717961 -0.25489610671796115 -0.1875
  endloop
endfacet
facet normal 1.0 -0.0 -0.0
  outer loop
    vertex 2.254896106717961 -0.25489610671796115 1.0
    vertex 2.254896106717961 2.2548961067179607 -0.1875
    vertex 2.254896106717961 2.254896106717961 1.0
  endloop
endfacet
facet normal 0.0 -1.0 0.0
  outer loop
    vertex 2.254896106717961 -0.25489610671796115 1.0
    vertex -0.25489610671796115 -0.25489610671796115 -0.1875
    vertex 2.254896106717961 -0.25489610671796115 -0.1875
  endloop
endfacet
facet normal 0.0 -1.0 0.0
  outer loop
    vertex -0.25489610671796115 -0.25489610671796115 -0.1875
    vertex 2.254896106717961 -0.25489610671796115 1.0
    vertex -0.25489610671796115 -0.25489610671796115 1.0
  endloop
endfacet
facet normal -0.0 1.0 0.0
  outer loop
    vertex 0.0 0.0 1.0
    vertex 2.0 0.0 0.0
    vertex 0.0 0.0 0.0
  endloop
endfacet
facet normal -0.0 1.0 0.0
  outer loop
    vertex 2.0 0.0 0.0
    vertex 0.0 0.0 1.0
    vertex 2.0 0.0 1.0
  endloop
endfacet
facet normal -1.0 0.0 0.0
  outer loop
    vertex 2.0 2.0 1.0
    vertex 2.0 0.0 0.0
    vertex 2.0 0.0 1.0
  endloop
endfacet
facet normal -1.0 0.0 0.0
  outer loop
    vertex 2.0 0.0 0.0
    vertex 2.0 2.0 1.0
    vertex 2.0 2.0 0.0
  endloop
endfacet
facet normal -0.0 -1.0 -0.0
  outer loop
    vertex 2.0 2.0 1.0
    vertex 0.0 2.0 0.0
    vertex 2.0 2.0 0.0
  endloop
endfacet
facet normal -0.0 -1.0 -0.0
  outer loop
    vertex 0.0 2.0 0.0
    vertex 2.0 2.0 1.0
    vertex 0.0 2.0 1.0
  endloop
endfacet
facet normal 1.0 0.0 0.0
  outer loop
    vertex 0.0 2.0 0.0
    vertex 0.0 0.0 1.0
    vertex 0.0 0.0 0.0
  endloop
endfacet
facet normal 1.0 0.0 0.0
  outer loop
    vertex 0.0 0.0 1.0
    vertex 0.0 2.0 0.0
    vertex 0.0 2.0 1.0
  endloop
endfacet
facet normal -1.0 0.0 0.0
  outer loop
    vertex -0.25489610671796115 2.254896106717961 1.0
    vertex -0.25489610671796115 -0.25489610671796115 -0.1875
    vertex -0.25489610671796115 -0.25489610671796115 1.0
  endloop
endfacet
facet normal -1.0 0.0 0.0
  outer loop
    vertex -0.25489610671796115 -0.25489610671796115 -0.1875
    vertex -0.25489610671796115 2.254896106717961 1.0
    vertex -0.25489610671796115 2.2548961067179607 -0.1875
  endloop
endfacet
facet normal 0.0 0.0 -1.0
  outer loop
    vertex 2.254896106717961 2.2548961067179607 -0.1875
    vertex -0.25489610671796115 -0.25489610671796115 -0.1875
    vertex -0.25489610671796115 2.2548961067179607 -0.1875
  endloop
endfacet
facet normal 0.0 0.0 -1.0
  outer loop
    vertex -0.25489610671796115 -0.25489610671796115 -0.1875
    vertex 2.254896106717961 2.2548961067179607 -0.1875
    vertex 2.254896106717961 -0.25489610671796115 -0.1875
  endloop
endfacet
facet normal 0.0 0.0 -1.0
  outer loop
    vertex 1.8914709460311279 1.8914709460311279 -0.0625
    vertex 0.10852905396887214 0.10852905396887214 -0.0625
    vertex 0.10852905396887214 1.8914709460311279 -0.0625
  endloop
endfacet
facet normal 0.0 0.0 -1.0
  outer loop
    vertex 0.10852905396887214 0.10852905396887214 -0.0625
    vertex 1.8914709460311279 1.8914709460311279 -0.0625
    vertex 1.8914709460311279 0.10852905396887214 -0.0625
  endloop
endfacet
facet normal -0.0 -1.0 -0.0
  outer loop
    vertex 1.8914709460311279 0.10852905396887214 0.0
    vertex 0.10852905396887214 0.10852905396887214 -0.0625
    vertex 1.8914709460311279 0.10852905396887214 -0.0625
  endloop
endfacet
facet normal -0.0 -1.0 -0.0
  outer loop
    vertex 0.10852905396887214 0.10852905396887214 -0.0625
    vertex 1.8914709460311279 0.10852905396887214 0.0
    vertex 0.10852905396887214 0.10852905396887214 0.0
  endloop
endfacet
facet normal -1.0 0.0 0.0
  outer loop
    vertex 0.10852905396887214 1.8914709460311279 0.0
    vertex 0.10852905396887214 0.10852905396887214 -0.0625
    vertex 0.10852905396887214 0.10852905396887214 0.0
  endloop
endfacet
facet normal -1.0 0.0 0.0
  outer loop
    vertex 0.10852905396887214 0.10852905396887214 -0.0625
    vertex 0.10852905396887214 1.8914709460311279 0.0
    vertex 0.10852905396887214 1.8914709460311279 -0.0625
  endloop
endfacet
facet normal -0.0 1.0 0.0
  outer loop
    vertex 0.10852905396887214 1.8914709460311279 0.0
    vertex 1.8914709460311279 1.8914709460311279 -0.0625
    vertex 0.10852905396887214 1.8914709460311279 -0.0625
  endloop
endfacet
facet normal -0.0 1.0 0.0
  outer loop
    vertex 1.8914709460311279 1.8914709460311279 -0.0625
    vertex 0.10852905396887214 1.8914709460311279 0.0
    vertex 1.8914709460311279 1.8914709460311279 0.0
  endloop
endfacet
facet normal 1.0 0.0 0.0
  outer loop
    vertex 1.8914709460311279 1.8914709460311279 -0.0625
    vertex 1.8914709460311279 0.10852905396887214 0.0
    vertex 1.8914709460311279 0.10852905396887214 -0.0625
  endloop
endfacet
facet normal 1.0 0.0 0.0
  outer loop
    vertex 1.8914709460311279 0.10852905396887214 0.0
    vertex 1.8914709460311279 1.8914709460311279 -0.0625
    vertex 1.8914709460311279 1.8914709460311279 0.0
  endloop
endfacet
facet normal 0.0 0.0 -1.0
  outer loop
    vertex 0.8084393291224644 0.8842829436745944 -0.0625
    vertex 1.0493859458161436 0.8533146748334275 -0.0625
    vertex 0.7543469466265162 0.8422891734152751 -0.0625
  endloop
endfacet
facet normal 0.0 0.0 -1.0
  outer loop
    vertex 1.0493859458161436 0.8533146748334275 -0.0625
    vertex 0.8084393291224644 0.8842829436745944 -0.0625
    vertex 1.1266594213023673 0.8897529598820497 -0.0625
  endloop
endfacet
facet normal 0.0 0.0 -1.0
  outer loop
    vertex 1.0493859458161436 0.8533146748334275 -0.0625
    vertex 1.1266594213023673 0.8897529598820497 -0.0625
    vertex 1.0968402357270026 0.8533146748334275 -0.0625
  endloop
endfacet
facet normal 0.0 0.0 -1.0
  outer loop
    vertex 1.213600390710795 0.8897529598820497 -0.0625
    vertex 1.2407985268534207 0.8538939647442865 -0.0625
    vertex 1.1838476810268403 0.8533146748334275 -0.0625
  endloop
endfacet
facet normal 0.0 0.0 -1.0
  outer loop
    vertex 1.2407985268534207 0.8538939647442865 -0.0625
    vertex 1.213600390710795 0.8897529598820497 -0.0625
    vertex 1.2692976911565 0.8897529598820497 -0.0625
  endloop
endfacet
facet normal 0.0 0.0 -1.0
  outer loop
    vertex 1.2407985268534207 0.8538939647442865 -0.0625
    vertex 1.2692976911565 0.8897529598820497 -0.0625
    vertex 1.280171247680001 0.8514628464298617 -0.0625
  endloop
endfacet
facet normal 0.0 0.0 -1.0
  outer loop
    vertex 1.280171247680001 0.8514628464298617 -0.0625
    vertex 1.2692976911565 0.8897529598820497 -0.0625
    vertex 1.299717533893534 0.8813959906762151 -0.0625
  endloop
endfacet
facet normal 0.0 0.0 -1.0
  outer loop
    vertex 1.280171247680001 0.8514628464298617 -0.0625
    vertex 1.299717533893534 0.8813959906762151 -0.0625
    vertex 1.3024359230244094 0.8548056341121957 -0.0625
  endloop
endfacet
facet normal 0.0 0.0 -1.0
  outer loop
    vertex 1.3024359230244094 0.8548056341121957 -0.0625
    vertex 1.299717533893534 0.8813959906762151 -0.0625
    vertex 1.3098574814725454 0.8648339971591973 -0.0625
  endloop
endfacet
facet normal 0.0 0.0 -1.0
  outer loop
    vertex 0.3848549490576345 0.5760360158104331 -0.0625
    vertex 0.37813138746930386 0.5440806986887758 -0.0625
    vertex 0.3738769304190608 0.5573070269403966 -0.0625
  endloop
endfacet
facet normal 0.0 0.0 -1.0
  outer loop
    vertex 0.37813138746930386 0.5440806986887758 -0.0625
    vertex 0.3848549490576345 0.5760360158104331 -0.0625
    vertex 0.3908947586200332 0.5396719226049023 -0.0625
  endloop
endfacet
facet normal 0.0 0.0 -1.0
  outer loop
    vertex 0.3908947586200332 0.5396719226049023 -0.0625
    vertex 0.3848549490576345 0.5760360158104331 -0.0625
    vertex 0.41778900497335575 0.6102954348111421 -0.0625
  endloop
endfacet
facet normal 0.0 0.0 -1.0
  outer loop
    vertex 0.3908947586200332 0.5396719226049023 -0.0625
    vertex 0.41778900497335575 0.6102954348111421 -0.0625
    vertex 0.4174851151840527 0.5536769684416122 -0.0625
  endloop
endfacet
facet normal 0.0 0.0 -1.0
  outer loop
    vertex 0.4174851151840527 0.5536769684416122 -0.0625
    vertex 0.41778900497335575 0.6102954348111421 -0.0625
    vertex 0.4692983242602277 0.5956921059517418 -0.0625
  endloop
endfacet
facet normal 0.0 0.0 -1.0
  outer loop
    vertex 0.4692983242602277 0.5956921059517418 -0.0625
    vertex 0.41778900497335575 0.6102954348111421 -0.0625
    vertex 0.5495252286362406 0.7254055632045782 -0.0625
  endloop
endfacet
facet normal 0.0 0.0 -1.0
  outer loop
    vertex 0.4692983242602277 0.5956921059517418 -0.0625
    vertex 0.5495252286362406 0.7254055632045782 -0.0625
    vertex 0.5489174490576345 0.6669257718755668 -0.0625
  endloop
endfacet
facet normal 0.0 0.0 -1.0
  outer loop
    vertex 0.5489174490576345 0.6669257718755668 -0.0625
    vertex 0.5495252286362406 0.7254055632045782 -0.0625
    vertex 0.7543469466265162 0.8422891734152751 -0.0625
  endloop
endfacet
facet normal 0.0 0.0 -1.0
  outer loop
    vertex 0.7543469466265162 0.8422891734152751 -0.0625
    vertex 0.5495252286362406 0.7254055632045782 -0.0625
    vertex 0.6887067521370511 0.8411305935935571 -0.0625
  endloop
endfacet
facet normal 0.0 0.0 -1.0
  outer loop
    vertex 0.7543469466265162 0.8422891734152751 -0.0625
    vertex 0.6887067521370511 0.8411305935935571 -0.0625
    vertex 0.7373291184255437 0.8812440457815636 -0.0625
  endloop
endfacet
facet normal 0.0 0.0 -1.0
  outer loop
    vertex 0.7543469466265162 0.8422891734152751 -0.0625
    vertex 0.7373291184255437 0.8812440457815636 -0.0625
    vertex 0.9116099125908599 1.0175386162839946 -0.0625
  endloop
endfacet
facet normal 0.0 0.0 -1.0
  outer loop
    vertex 0.7543469466265162 0.8422891734152751 -0.0625
    vertex 0.9116099125908599 1.0175386162839946 -0.0625
    vertex 0.8084393291224644 0.8842829436745944 -0.0625
  endloop
endfacet
facet normal 0.0 0.0 -1.0
  outer loop
    vertex 0.8084393291224644 0.8842829436745944 -0.0625
    vertex 0.9116099125908599 1.0175386162839946 -0.0625
    vertex 1.1425566559052844 1.1325609015352103 -0.0625
  endloop
endfacet
facet normal 0.0 0.0 -1.0
  outer loop
    vertex 1.1425566559052844 1.1325609015352103 -0.0625
    vertex 0.9116099125908599 1.0175386162839946 -0.0625
    vertex 1.147580333984701 1.189122388569246 -0.0625
  endloop
endfacet
facet normal 0.0 0.0 -1.0
  outer loop
    vertex 1.1425566559052844 1.1325609015352103 -0.0625
    vertex 1.147580333984701 1.189122388569246 -0.0625
    vertex 1.3993767658120917 1.3151226924590351 -0.0625
  endloop
endfacet
facet normal 0.0 0.0 -1.0
  outer loop
    vertex 1.3993767658120917 1.3151226924590351 -0.0625
    vertex 1.147580333984701 1.189122388569246 -0.0625
    vertex 1.300322939333161 1.2942706298070903 -0.0625
  endloop
endfacet
facet normal 0.0 0.0 -1.0
  outer loop
    vertex 1.3993767658120917 1.3151226924590351 -0.0625
    vertex 1.300322939333161 1.2942706298070903 -0.0625
    vertex 1.4188019709376993 1.3693765164055507 -0.0625
  endloop
endfacet
facet normal 0.0 0.0 -1.0
  outer loop
    vertex 1.3993767658120917 1.3151226924590351 -0.0625
    vertex 1.4188019709376993 1.3693765164055507 -0.0625
    vertex 1.4707326998933317 1.3607631401899916 -0.0625
  endloop
endfacet
facet normal 0.0 0.0 -1.0
  outer loop
    vertex 1.4707326998933317 1.3607631401899916 -0.0625
    vertex 1.4188019709376993 1.3693765164055507 -0.0625
    vertex 1.503017428798315 1.414440048364627 -0.0625
  endloop
endfacet
facet normal 0.0 0.0 -1.0
  outer loop
    vertex 1.4707326998933317 1.3607631401899916 -0.0625
    vertex 1.503017428798315 1.414440048364627 -0.0625
    vertex 1.5040525533931288 1.3759766227669767 -0.0625
  endloop
endfacet
facet normal 0.0 0.0 -1.0
  outer loop
    vertex 1.5040525533931288 1.3759766227669767 -0.0625
    vertex 1.503017428798315 1.414440048364627 -0.0625
    vertex 1.552969312915009 1.4294612256843189 -0.0625
  endloop
endfacet
facet normal 0.0 0.0 -1.0
  outer loop
    vertex 1.5040525533931288 1.3759766227669767 -0.0625
    vertex 1.552969312915009 1.4294612256843189 -0.0625
    vertex 1.510139845735106 1.3692815508463934 -0.0625
  endloop
endfacet
facet normal 0.0 0.0 -1.0
  outer loop
    vertex 0.9416214034235179 0.6612563279938812 -0.0625
    vertex 0.8991979140090122 0.5570696130425036 -0.0625
    vertex 0.8898817926556897 0.5846761010895052 -0.0625
  endloop
endfacet
facet normal 0.0 0.0 -1.0
  outer loop
    vertex 0.8991979140090122 0.5570696130425036 -0.0625
    vertex 0.9416214034235179 0.6612563279938812 -0.0625
    vertex 0.9096061392926427 0.5440213452143026 -0.0625
  endloop
endfacet
facet normal 0.0 0.0 -1.0
  outer loop
    vertex 0.9096061392926427 0.5440213452143026 -0.0625
    vertex 0.9416214034235179 0.6612563279938812 -0.0625
    vertex 0.9209450270560138 0.5396719226049023 -0.0625
  endloop
endfacet
facet normal 0.0 0.0 -1.0
  outer loop
    vertex 0.9209450270560138 0.5396719226049023 -0.0625
    vertex 0.9416214034235179 0.6612563279938812 -0.0625
    vertex 0.9623856229332423 0.5788024812556316 -0.0625
  endloop
endfacet
facet normal 0.0 0.0 -1.0
  outer loop
    vertex 0.9623856229332423 0.5788024812556316 -0.0625
    vertex 0.9416214034235179 0.6612563279938812 -0.0625
    vertex 1.0968402357270026 0.8533146748334275 -0.0625
  endloop
endfacet
facet normal 0.0 0.0 -1.0
  outer loop
    vertex 0.9623856229332423 0.5788024812556316 -0.0625
    vertex 1.0968402357270026 0.8533146748334275 -0.0625
    vertex 1.0599841022180883 0.6961941572078196 -0.0625
  endloop
endfacet
facet normal 0.0 0.0 -1.0
  outer loop
    vertex 1.0599841022180883 0.6961941572078196 -0.0625
    vertex 1.0968402357270026 0.8533146748334275 -0.0625
    vertex 1.1838476810268403 0.8533146748334275 -0.0625
  endloop
endfacet
facet normal 0.0 0.0 -1.0
  outer loop
    vertex 1.1838476810268403 0.8533146748334275 -0.0625
    vertex 1.0968402357270026 0.8533146748334275 -0.0625
    vertex 1.1266594213023673 0.8897529598820497 -0.0625
  endloop
endfacet
facet normal 0.0 0.0 -1.0
  outer loop
    vertex 1.1838476810268403 0.8533146748334275 -0.0625
    vertex 1.1266594213023673 0.8897529598820497 -0.0625
    vertex 1.4114421401030155 1.2360163816810774 -0.0625
  endloop
endfacet
facet normal 0.0 0.0 -1.0
  outer loop
    vertex 1.1838476810268403 0.8533146748334275 -0.0625
    vertex 1.4114421401030155 1.2360163816810774 -0.0625
    vertex 1.213600390710795 0.8897529598820497 -0.0625
  endloop
endfacet
facet normal 0.0 0.0 -1.0
  outer loop
    vertex 1.213600390710795 0.8897529598820497 -0.0625
    vertex 1.4114421401030155 1.2360163816810774 -0.0625
    vertex 1.5001779585795147 1.2445727785611422 -0.0625
  endloop
endfacet
facet normal 0.0 0.0 -1.0
  outer loop
    vertex 1.5001779585795147 1.2445727785611422 -0.0625
    vertex 1.4114421401030155 1.2360163816810774 -0.0625
    vertex 1.4642714806621728 1.3005264860165717 -0.0625
  endloop
endfacet
facet normal 0.0 0.0 -1.0
  outer loop
    vertex 1.5001779585795147 1.2445727785611422 -0.0625
    vertex 1.4642714806621728 1.3005264860165717 -0.0625
    vertex 1.5092091832553653 1.3668504325319688 -0.0625
  endloop
endfacet
facet normal 0.0 0.0 -1.0
  outer loop
    vertex 1.5001779585795147 1.2445727785611422 -0.0625
    vertex 1.5092091832553653 1.3668504325319688 -0.0625
    vertex 1.564386547264685 1.3333655763731358 -0.0625
  endloop
endfacet
facet normal 0.0 0.0 -1.0
  outer loop
    vertex 1.564386547264685 1.3333655763731358 -0.0625
    vertex 1.5092091832553653 1.3668504325319688 -0.0625
    vertex 1.510139845735106 1.3692815508463934 -0.0625
  endloop
endfacet
facet normal 0.0 0.0 -1.0
  outer loop
    vertex 1.564386547264685 1.3333655763731358 -0.0625
    vertex 1.510139845735106 1.3692815508463934 -0.0625
    vertex 1.552969312915009 1.4294612256843189 -0.0625
  endloop
endfacet
facet normal 0.0 0.0 -1.0
  outer loop
    vertex 1.564386547264685 1.3333655763731358 -0.0625
    vertex 1.552969312915009 1.4294612256843189 -0.0625
    vertex 1.5673281054595796 1.4268004094236828 -0.0625
  endloop
endfacet
facet normal 0.0 0.0 -1.0
  outer loop
    vertex 1.564386547264685 1.3333655763731358 -0.0625
    vertex 1.5673281054595796 1.4268004094236828 -0.0625
    vertex 1.5804386944359772 1.3645356470275118 -0.0625
  endloop
endfacet
facet normal 0.0 0.0 -1.0
  outer loop
    vertex 1.5804386944359772 1.3645356470275118 -0.0625
    vertex 1.5673281054595796 1.4268004094236828 -0.0625
    vertex 1.5775843858485583 1.4188179606417743 -0.0625
  endloop
endfacet
facet normal 0.0 0.0 -1.0
  outer loop
    vertex 1.5804386944359772 1.3645356470275118 -0.0625
    vertex 1.5775843858485583 1.4188179606417743 -0.0625
    vertex 1.5857894101597414 1.3868881655141405 -0.0625
  endloop
endfacet
facet normal 0.0 0.0 -1.0
  outer loop
    vertex 0.40669702766379334 0.856325083058711 -0.0625
    vertex 0.40061923187773174 0.8131727329776738 -0.0625
    vertex 0.37744763544337195 0.8481960311948537 -0.0625
  endloop
endfacet
facet normal 0.0 0.0 -1.0
  outer loop
    vertex 0.40061923187773174 0.8131727329776738 -0.0625
    vertex 0.40669702766379334 0.856325083058711 -0.0625
    vertex 0.4220434620235989 0.820390115473622 -0.0625
  endloop
endfacet
facet normal 0.0 0.0 -1.0
  outer loop
    vertex 0.4220434620235989 0.820390115473622 -0.0625
    vertex 0.40669702766379334 0.856325083058711 -0.0625
    vertex 0.5002950827691418 0.8654417767378034 -0.0625
  endloop
endfacet
facet normal 0.0 0.0 -1.0
  outer loop
    vertex 0.4220434620235989 0.820390115473622 -0.0625
    vertex 0.5002950827691418 0.8654417767378034 -0.0625
    vertex 0.4771994587821078 0.8274555530749186 -0.0625
  endloop
endfacet
facet normal 0.0 0.0 -1.0
  outer loop
    vertex 0.4771994587821078 0.8274555530749186 -0.0625
    vertex 0.5002950827691418 0.8654417767378034 -0.0625
    vertex 0.6887067521370511 0.8411305935935571 -0.0625
  endloop
endfacet
facet normal 0.0 0.0 -1.0
  outer loop
    vertex 0.6887067521370511 0.8411305935935571 -0.0625
    vertex 0.5002950827691418 0.8654417767378034 -0.0625
    vertex 0.7373291184255437 0.8812440457815636 -0.0625
  endloop
endfacet
facet normal 0.0 0.0 -1.0
  outer loop
    vertex 0.3440197586200332 0.8232770684720011 -0.0625
    vertex 0.34690671161841247 0.7939896900279169 -0.0625
    vertex 0.33984127401711584 0.8064871576130059 -0.0625
  endloop
endfacet
facet normal 0.0 0.0 -1.0
  outer loop
    vertex 0.34690671161841247 0.7939896900279169 -0.0625
    vertex 0.3440197586200332 0.8232770684720011 -0.0625
    vertex 0.35655521242878524 0.837180026332617 -0.0625
  endloop
endfacet
facet normal 0.0 0.0 -1.0
  outer loop
    vertex 0.34690671161841247 0.7939896900279169 -0.0625
    vertex 0.35655521242878524 0.837180026332617 -0.0625
    vertex 0.36810302442230225 0.7850629274671389 -0.0625
  endloop
endfacet
facet normal 0.0 0.0 -1.0
  outer loop
    vertex 0.36810302442230225 0.7850629274671389 -0.0625
    vertex 0.35655521242878524 0.837180026332617 -0.0625
    vertex 0.37744763544337195 0.8481960311948537 -0.0625
  endloop
endfacet
facet normal 0.0 0.0 -1.0
  outer loop
    vertex 0.36810302442230225 0.7850629274671389 -0.0625
    vertex 0.37744763544337195 0.8481960311948537 -0.0625
    vertex 0.40061923187773174 0.8131727329776738 -0.0625
  endloop
endfacet
facet normal 0.0 0.0 -1.0
  outer loop
    vertex 0.36810302442230225 0.7850629274671389 -0.0625
    vertex 0.40061923187773174 0.8131727329776738 -0.0625
    vertex 0.4528882756378614 0.7779215174185166 -0.0625
  endloop
endfacet
facet normal 0.0 0.0 -1.0
  outer loop
    vertex 0.4528882756378614 0.7779215174185166 -0.0625
    vertex 0.40061923187773174 0.8131727329776738 -0.0625
    vertex 0.42234735181290195 0.8039040944039298 -0.0625
  endloop
endfacet
facet normal 0.0 0.0 -1.0
  outer loop
    vertex 0.4528882756378614 0.7779215174185166 -0.0625
    vertex 0.42234735181290195 0.8039040944039298 -0.0625
    vertex 0.48753171161841247 0.8010171414055506 -0.0625
  endloop
endfacet
facet normal 0.0 0.0 -1.0
  outer loop
    vertex 0.4528882756378614 0.7779215174185166 -0.0625
    vertex 0.48753171161841247 0.8010171414055506 -0.0625
    vertex 0.5522602367399684 0.7821759744687596 -0.0625
  endloop
endfacet
facet normal 0.0 0.0 -1.0
  outer loop
    vertex 0.5522602367399684 0.7821759744687596 -0.0625
    vertex 0.48753171161841247 0.8010171414055506 -0.0625
    vertex 0.5689741751516377 0.802232700562763 -0.0625
  endloop
endfacet
facet normal 0.0 0.0 -1.0
  outer loop
    vertex 0.5522602367399684 0.7821759744687596 -0.0625
    vertex 0.5689741751516377 0.802232700562763 -0.0625
    vertex 0.5771032270154952 0.7874940457815636 -0.0625
  endloop
endfacet
facet normal 0.0 0.0 -1.0
  outer loop
    vertex 0.5771032270154952 0.7874940457815636 -0.0625
    vertex 0.5689741751516377 0.802232700562763 -0.0625
    vertex 0.5812817116184125 0.8007132516162475 -0.0625
  endloop
endfacet
facet normal 0.0 0.0 -1.0
  outer loop
    vertex 0.5771032270154952 0.7874940457815636 -0.0625
    vertex 0.5812817116184125 0.8007132516162475 -0.0625
    vertex 0.5853842237740041 0.794939345619489 -0.0625
  endloop
endfacet
facet normal 0.0 0.0 1.0
  outer loop
    vertex 0.34690671161841247 0.7939896900279169 0.0
    vertex 0.3440197586200332 0.8232770684720011 0.0
    vertex 0.33984127401711584 0.8064871576130059 0.0
  endloop
endfacet
facet normal 0.0 0.0 1.0
  outer loop
    vertex 0.3440197586200332 0.8232770684720011 0.0
    vertex 0.34690671161841247 0.7939896900279169 0.0
    vertex 0.35655521242878524 0.837180026332617 0.0
  endloop
endfacet
facet normal 0.0 0.0 1.0
  outer loop
    vertex 0.35655521242878524 0.837180026332617 0.0
    vertex 0.34690671161841247 0.7939896900279169 0.0
    vertex 0.36810302442230225 0.7850629274671389 0.0
  endloop
endfacet
facet normal 0.0 0.0 1.0
  outer loop
    vertex 0.35655521242878524 0.837180026332617 0.0
    vertex 0.36810302442230225 0.7850629274671389 0.0
    vertex 0.37744763544337195 0.8481960311948537 0.0
  endloop
endfacet
facet normal 0.0 0.0 1.0
  outer loop
    vertex 0.37744763544337195 0.8481960311948537 0.0
    vertex 0.36810302442230225 0.7850629274671389 0.0
    vertex 0.40061923187773174 0.8131727329776738 0.0
  endloop
endfacet
facet normal 0.0 0.0 1.0
  outer loop
    vertex 0.40061923187773174 0.8131727329776738 0.0
    vertex 0.36810302442230225 0.7850629274671389 0.0
    vertex 0.4528882756378614 0.7779215174185166 0.0
  endloop
endfacet
facet normal 0.0 0.0 1.0
  outer loop
    vertex 0.40061923187773174 0.8131727329776738 0.0
    vertex 0.4528882756378614 0.7779215174185166 0.0
    vertex 0.42234735181290195 0.8039040944039298 0.0
  endloop
endfacet
facet normal 0.0 0.0 1.0
  outer loop
    vertex 0.42234735181290195 0.8039040944039298 0.0
    vertex 0.4528882756378614 0.7779215174185166 0.0
    vertex 0.48753171161841247 0.8010171414055506 0.0
  endloop
endfacet
facet normal 0.0 0.0 1.0
  outer loop
    vertex 0.48753171161841247 0.8010171414055506 0.0
    vertex 0.4528882756378614 0.7779215174185166 0.0
    vertex 0.5522602367399684 0.7821759744687596 0.0
  endloop
endfacet
facet normal 0.0 0.0 1.0
  outer loop
    vertex 0.48753171161841247 0.8010171414055506 0.0
    vertex 0.5522602367399684 0.7821759744687596 0.0
    vertex 0.5689741751516377 0.802232700562763 0.0
  endloop
endfacet
facet normal 0.0 0.0 1.0
  outer loop
    vertex 0.5689741751516377 0.802232700562763 0.0
    vertex 0.5522602367399684 0.7821759744687596 0.0
    vertex 0.5771032270154952 0.7874940457815636 0.0
  endloop
endfacet
facet normal 0.0 0.0 1.0
  outer loop
    vertex 0.5689741751516377 0.802232700562763 0.0
    vertex 0.5771032270154952 0.7874940457815636 0.0
    vertex 0.5812817116184125 0.8007132516162475 0.0
  endloop
endfacet
facet normal 0.0 0.0 1.0
  outer loop
    vertex 0.5812817116184125 0.8007132516162475 0.0
    vertex 0.5771032270154952 0.7874940457815636 0.0
    vertex 0.5853842237740041 0.794939345619489 0.0
  endloop
endfacet
facet normal 0.0 0.0 1.0
  outer loop
    vertex 1.2407985268534207 0.8538939647442865 0.0
    vertex 1.213600390710795 0.8897529598820497 0.0
    vertex 1.1838476810268403 0.8533146748334275 0.0
  endloop
endfacet
facet normal 0.0 0.0 1.0
  outer loop
    vertex 1.213600390710795 0.8897529598820497 0.0
    vertex 1.2407985268534207 0.8538939647442865 0.0
    vertex 1.2692976911565 0.8897529598820497 0.0
  endloop
endfacet
facet normal 0.0 0.0 1.0
  outer loop
    vertex 1.2692976911565 0.8897529598820497 0.0
    vertex 1.2407985268534207 0.8538939647442865 0.0
    vertex 1.280171247680001 0.8514628464298617 0.0
  endloop
endfacet
facet normal 0.0 0.0 1.0
  outer loop
    vertex 1.2692976911565 0.8897529598820497 0.0
    vertex 1.280171247680001 0.8514628464298617 0.0
    vertex 1.299717533893534 0.8813959906762151 0.0
  endloop
endfacet
facet normal 0.0 0.0 1.0
  outer loop
    vertex 1.299717533893534 0.8813959906762151 0.0
    vertex 1.280171247680001 0.8514628464298617 0.0
    vertex 1.3024359230244094 0.8548056341121957 0.0
  endloop
endfacet
facet normal 0.0 0.0 1.0
  outer loop
    vertex 1.299717533893534 0.8813959906762151 0.0
    vertex 1.3024359230244094 0.8548056341121957 0.0
    vertex 1.3098574814725454 0.8648339971591973 0.0
  endloop
endfacet
facet normal 0.0 0.0 1.0
  outer loop
    vertex 0.8991979140090122 0.5570696130425036 0.0
    vertex 0.9416214034235179 0.6612563279938812 0.0
    vertex 0.8898817926556897 0.5846761010895052 0.0
  endloop
endfacet
facet normal 0.0 0.0 1.0
  outer loop
    vertex 0.9416214034235179 0.6612563279938812 0.0
    vertex 0.8991979140090122 0.5570696130425036 0.0
    vertex 0.9096061392926427 0.5440213452143026 0.0
  endloop
endfacet
facet normal 0.0 0.0 1.0
  outer loop
    vertex 0.9416214034235179 0.6612563279938812 0.0
    vertex 0.9096061392926427 0.5440213452143026 0.0
    vertex 0.9209450270560138 0.5396719226049023 0.0
  endloop
endfacet
facet normal 0.0 0.0 1.0
  outer loop
    vertex 0.9416214034235179 0.6612563279938812 0.0
    vertex 0.9209450270560138 0.5396719226049023 0.0
    vertex 0.9623856229332423 0.5788024812556316 0.0
  endloop
endfacet
facet normal 0.0 0.0 1.0
  outer loop
    vertex 0.9416214034235179 0.6612563279938812 0.0
    vertex 0.9623856229332423 0.5788024812556316 0.0
    vertex 1.0968402357270026 0.8533146748334275 0.0
  endloop
endfacet
facet normal 0.0 0.0 1.0
  outer loop
    vertex 1.0968402357270026 0.8533146748334275 0.0
    vertex 0.9623856229332423 0.5788024812556316 0.0
    vertex 1.0599841022180883 0.6961941572078196 0.0
  endloop
endfacet
facet normal 0.0 0.0 1.0
  outer loop
    vertex 1.0968402357270026 0.8533146748334275 0.0
    vertex 1.0599841022180883 0.6961941572078196 0.0
    vertex 1.1838476810268403 0.8533146748334275 0.0
  endloop
endfacet
facet normal 0.0 0.0 1.0
  outer loop
    vertex 1.0968402357270026 0.8533146748334275 0.0
    vertex 1.1838476810268403 0.8533146748334275 0.0
    vertex 1.1266594213023673 0.8897529598820497 0.0
  endloop
endfacet
facet normal 0.0 0.0 1.0
  outer loop
    vertex 1.1266594213023673 0.8897529598820497 0.0
    vertex 1.1838476810268403 0.8533146748334275 0.0
    vertex 1.4114421401030155 1.2360163816810774 0.0
  endloop
endfacet
facet normal 0.0 0.0 1.0
  outer loop
    vertex 1.4114421401030155 1.2360163816810774 0.0
    vertex 1.1838476810268403 0.8533146748334275 0.0
    vertex 1.213600390710795 0.8897529598820497 0.0
  endloop
endfacet
facet normal 0.0 0.0 1.0
  outer loop
    vertex 1.4114421401030155 1.2360163816810774 0.0
    vertex 1.213600390710795 0.8897529598820497 0.0
    vertex 1.5001779585795147 1.2445727785611422 0.0
  endloop
endfacet
facet normal 0.0 0.0 1.0
  outer loop
    vertex 1.4114421401030155 1.2360163816810774 0.0
    vertex 1.5001779585795147 1.2445727785611422 0.0
    vertex 1.4642714806621728 1.3005264860165717 0.0
  endloop
endfacet
facet normal 0.0 0.0 1.0
  outer loop
    vertex 1.4642714806621728 1.3005264860165717 0.0
    vertex 1.5001779585795147 1.2445727785611422 0.0
    vertex 1.5092091832553653 1.3668504325319688 0.0
  endloop
endfacet
facet normal 0.0 0.0 1.0
  outer loop
    vertex 1.5092091832553653 1.3668504325319688 0.0
    vertex 1.5001779585795147 1.2445727785611422 0.0
    vertex 1.564386547264685 1.3333655763731358 0.0
  endloop
endfacet
facet normal 0.0 0.0 1.0
  outer loop
    vertex 1.5092091832553653 1.3668504325319688 0.0
    vertex 1.564386547264685 1.3333655763731358 0.0
    vertex 1.510139845735106 1.3692815508463934 0.0
  endloop
endfacet
facet normal 0.0 0.0 1.0
  outer loop
    vertex 1.510139845735106 1.3692815508463934 0.0
    vertex 1.564386547264685 1.3333655763731358 0.0
    vertex 1.552969312915009 1.4294612256843189 0.0
  endloop
endfacet
facet normal 0.0 0.0 1.0
  outer loop
    vertex 1.552969312915009 1.4294612256843189 0.0
    vertex 1.564386547264685 1.3333655763731358 0.0
    vertex 1.5673281054595796 1.4268004094236828 0.0
  endloop
endfacet
facet normal 0.0 0.0 1.0
  outer loop
    vertex 1.5673281054595796 1.4268004094236828 0.0
    vertex 1.564386547264685 1.3333655763731358 0.0
    vertex 1.5804386944359772 1.3645356470275118 0.0
  endloop
endfacet
facet normal 0.0 0.0 1.0
  outer loop
    vertex 1.5673281054595796 1.4268004094236828 0.0
    vertex 1.5804386944359772 1.3645356470275118 0.0
    vertex 1.5775843858485583 1.4188179606417743 0.0
  endloop
endfacet
facet normal 0.0 0.0 1.0
  outer loop
    vertex 1.5775843858485583 1.4188179606417743 0.0
    vertex 1.5804386944359772 1.3645356470275118 0.0
    vertex 1.5857894101597414 1.3868881655141405 0.0
  endloop
endfacet
facet normal 0.0 0.0 1.0
  outer loop
    vertex 0.37813138746930386 0.5440806986887758 0.0
    vertex 0.3848549490576345 0.5760360158104331 0.0
    vertex 0.3738769304190608 0.5573070269403966 0.0
  endloop
endfacet
facet normal 0.0 0.0 1.0
  outer loop
    vertex 0.3848549490576345 0.5760360158104331 0.0
    vertex 0.37813138746930386 0.5440806986887758 0.0
    vertex 0.3908947586200332 0.5396719226049023 0.0
  endloop
endfacet
facet normal 0.0 0.0 1.0
  outer loop
    vertex 0.3848549490576345 0.5760360158104331 0.0
    vertex 0.3908947586200332 0.5396719226049023 0.0
    vertex 0.41778900497335575 0.6102954348111421 0.0
  endloop
endfacet
facet normal 0.0 0.0 1.0
  outer loop
    vertex 0.41778900497335575 0.6102954348111421 0.0
    vertex 0.3908947586200332 0.5396719226049023 0.0
    vertex 0.4174851151840527 0.5536769684416122 0.0
  endloop
endfacet
facet normal 0.0 0.0 1.0
  outer loop
    vertex 0.41778900497335575 0.6102954348111421 0.0
    vertex 0.4174851151840527 0.5536769684416122 0.0
    vertex 0.4692983242602277 0.5956921059517418 0.0
  endloop
endfacet
facet normal 0.0 0.0 1.0
  outer loop
    vertex 0.41778900497335575 0.6102954348111421 0.0
    vertex 0.4692983242602277 0.5956921059517418 0.0
    vertex 0.5495252286362406 0.7254055632045782 0.0
  endloop
endfacet
facet normal 0.0 0.0 1.0
  outer loop
    vertex 0.5495252286362406 0.7254055632045782 0.0
    vertex 0.4692983242602277 0.5956921059517418 0.0
    vertex 0.5489174490576345 0.6669257718755668 0.0
  endloop
endfacet
facet normal 0.0 0.0 1.0
  outer loop
    vertex 0.5495252286362406 0.7254055632045782 0.0
    vertex 0.5489174490576345 0.6669257718755668 0.0
    vertex 0.7543469466265162 0.8422891734152751 0.0
  endloop
endfacet
facet normal 0.0 0.0 1.0
  outer loop
    vertex 0.5495252286362406 0.7254055632045782 0.0
    vertex 0.7543469466265162 0.8422891734152751 0.0
    vertex 0.6887067521370511 0.8411305935935571 0.0
  endloop
endfacet
facet normal 0.0 0.0 1.0
  outer loop
    vertex 0.6887067521370511 0.8411305935935571 0.0
    vertex 0.7543469466265162 0.8422891734152751 0.0
    vertex 0.7373291184255437 0.8812440457815636 0.0
  endloop
endfacet
facet normal 0.0 0.0 1.0
  outer loop
    vertex 0.7373291184255437 0.8812440457815636 0.0
    vertex 0.7543469466265162 0.8422891734152751 0.0
    vertex 0.9116099125908599 1.0175386162839946 0.0
  endloop
endfacet
facet normal 0.0 0.0 1.0
  outer loop
    vertex 0.9116099125908599 1.0175386162839946 0.0
    vertex 0.7543469466265162 0.8422891734152751 0.0
    vertex 0.8084393291224644 0.8842829436745944 0.0
  endloop
endfacet
facet normal 0.0 0.0 1.0
  outer loop
    vertex 0.9116099125908599 1.0175386162839946 0.0
    vertex 0.8084393291224644 0.8842829436745944 0.0
    vertex 1.1425566559052844 1.1325609015352103 0.0
  endloop
endfacet
facet normal 0.0 0.0 1.0
  outer loop
    vertex 0.9116099125908599 1.0175386162839946 0.0
    vertex 1.1425566559052844 1.1325609015352103 0.0
    vertex 1.147580333984701 1.189122388569246 0.0
  endloop
endfacet
facet normal 0.0 0.0 1.0
  outer loop
    vertex 1.147580333984701 1.189122388569246 0.0
    vertex 1.1425566559052844 1.1325609015352103 0.0
    vertex 1.3993767658120917 1.3151226924590351 0.0
  endloop
endfacet
facet normal 0.0 0.0 1.0
  outer loop
    vertex 1.147580333984701 1.189122388569246 0.0
    vertex 1.3993767658120917 1.3151226924590351 0.0
    vertex 1.300322939333161 1.2942706298070903 0.0
  endloop
endfacet
facet normal 0.0 0.0 1.0
  outer loop
    vertex 1.300322939333161 1.2942706298070903 0.0
    vertex 1.3993767658120917 1.3151226924590351 0.0
    vertex 1.4188019709376993 1.3693765164055507 0.0
  endloop
endfacet
facet normal 0.0 0.0 1.0
  outer loop
    vertex 1.4188019709376993 1.3693765164055507 0.0
    vertex 1.3993767658120917 1.3151226924590351 0.0
    vertex 1.4707326998933317 1.3607631401899916 0.0
  endloop
endfacet
facet normal 0.0 0.0 1.0
  outer loop
    vertex 1.4188019709376993 1.3693765164055507 0.0
    vertex 1.4707326998933317 1.3607631401899916 0.0
    vertex 1.503017428798315 1.414440048364627 0.0
  endloop
endfacet
facet normal 0.0 0.0 1.0
  outer loop
    vertex 1.503017428798315 1.414440048364627 0.0
    vertex 1.4707326998933317 1.3607631401899916 0.0
    vertex 1.5040525533931288 1.3759766227669767 0.0
  endloop
endfacet
facet normal 0.0 0.0 1.0
  outer loop
    vertex 1.503017428798315 1.414440048364627 0.0
    vertex 1.5040525533931288 1.3759766227669767 0.0
    vertex 1.552969312915009 1.4294612256843189 0.0
  endloop
endfacet
facet normal 0.0 0.0 1.0
  outer loop
    vertex 1.552969312915009 1.4294612256843189 0.0
    vertex 1.5040525533931288 1.3759766227669767 0.0
    vertex 1.510139845735106 1.3692815508463934 0.0
  endloop
endfacet
facet normal 0.0 0.0 1.0
  outer loop
    vertex 1.0493859458161436 0.8533146748334275 0.0
    vertex 0.8084393291224644 0.8842829436745944 0.0
    vertex 0.7543469466265162 0.8422891734152751 0.0
  endloop
endfacet
facet normal 0.0 0.0 1.0
  outer loop
    vertex 0.8084393291224644 0.8842829436745944 0.0
    vertex 1.0493859458161436 0.8533146748334275 0.0
    vertex 1.1266594213023673 0.8897529598820497 0.0
  endloop
endfacet
facet normal 0.0 0.0 1.0
  outer loop
    vertex 1.1266594213023673 0.8897529598820497 0.0
    vertex 1.0493859458161436 0.8533146748334275 0.0
    vertex 1.0968402357270026 0.8533146748334275 0.0
  endloop
endfacet
facet normal 0.0 0.0 1.0
  outer loop
    vertex 0.40061923187773174 0.8131727329776738 0.0
    vertex 0.40669702766379334 0.856325083058711 0.0
    vertex 0.37744763544337195 0.8481960311948537 0.0
  endloop
endfacet
facet normal 0.0 0.0 1.0
  outer loop
    vertex 0.40669702766379334 0.856325083058711 0.0
    vertex 0.40061923187773174 0.8131727329776738 0.0
    vertex 0.4220434620235989 0.820390115473622 0.0
  endloop
endfacet
facet normal 0.0 0.0 1.0
  outer loop
    vertex 0.40669702766379334 0.856325083058711 0.0
    vertex 0.4220434620235989 0.820390115473622 0.0
    vertex 0.5002950827691418 0.8654417767378034 0.0
  endloop
endfacet
facet normal 0.0 0.0 1.0
  outer loop
    vertex 0.5002950827691418 0.8654417767378034 0.0
    vertex 0.4220434620235989 0.820390115473622 0.0
    vertex 0.4771994587821078 0.8274555530749186 0.0
  endloop
endfacet
facet normal 0.0 0.0 1.0
  outer loop
    vertex 0.5002950827691418 0.8654417767378034 0.0
    vertex 0.4771994587821078 0.8274555530749186 0.0
    vertex 0.6887067521370511 0.8411305935935571 0.0
  endloop
endfacet
facet normal 0.0 0.0 1.0
  outer loop
    vertex 0.5002950827691418 0.8654417767378034 0.0
    vertex 0.6887067521370511 0.8411305935935571 0.0
    vertex 0.7373291184255437 0.8812440457815636 0.0
  endloop
endfacet
facet normal 0.0 1.0 0.0
  outer loop
    vertex 1.213600390710795 0.8897529598820497 0.0
    vertex 1.2692976911565 0.8897529598820497 -0.0625
    vertex 1.213600390710795 0.8897529598820497 -0.0625
  endloop
endfacet
facet normal 0.0 1.0 0.0
  outer loop
    vertex 1.2692976911565 0.8897529598820497 -0.0625
    vertex 1.213600390710795 0.8897529598820497 0.0
    vertex 1.2692976911565 0.8897529598820497 0.0
  endloop
endfacet
facet normal 0.26490634463358387 0.9642741459631037 0.0
  outer loop
    vertex 1.2692976911565 0.8897529598820497 0.0
    vertex 1.299717533893534 0.8813959906762151 -0.0625
    vertex 1.2692976911565 0.8897529598820497 -0.0625
  endloop
endfacet
facet normal 0.26490634463358387 0.9642741459631037 0.0
  outer loop
    vertex 1.299717533893534 0.8813959906762151 -0.0625
    vertex 1.2692976911565 0.8897529598820497 0.0
    vertex 1.299717533893534 0.8813959906762151 0.0
  endloop
endfacet
facet normal 0.8528524151487361 0.5221520448824922 0.0
  outer loop
    vertex 1.299717533893534 0.8813959906762151 -0.0625
    vertex 1.3098574814725454 0.8648339971591973 0.0
    vertex 1.3098574814725454 0.8648339971591973 -0.0625
  endloop
endfacet
facet normal 0.8528524151487361 0.5221520448824922 0.0
  outer loop
    vertex 1.3098574814725454 0.8648339971591973 0.0
    vertex 1.299717533893534 0.8813959906762151 -0.0625
    vertex 1.299717533893534 0.8813959906762151 0.0
  endloop
endfacet
facet normal 0.803820060344112 -0.5948725162489761 0.0
  outer loop
    vertex 1.3098574814725454 0.8648339971591973 -0.0625
    vertex 1.3024359230244094 0.8548056341121957 0.0
    vertex 1.3024359230244094 0.8548056341121957 -0.0625
  endloop
endfacet
facet normal 0.803820060344112 -0.5948725162489761 0.0
  outer loop
    vertex 1.3024359230244094 0.8548056341121957 0.0
    vertex 1.3098574814725454 0.8648339971591973 -0.0625
    vertex 1.3098574814725454 0.8648339971591973 0.0
  endloop
endfacet
facet normal 0.148474520858244 -0.9889162333867895 0.0
  outer loop
    vertex 1.3024359230244094 0.8548056341121957 0.0
    vertex 1.280171247680001 0.8514628464298617 -0.0625
    vertex 1.3024359230244094 0.8548056341121957 -0.0625
  endloop
endfacet
facet normal 0.148474520858244 -0.9889162333867895 0.0
  outer loop
    vertex 1.280171247680001 0.8514628464298617 -0.0625
    vertex 1.3024359230244094 0.8548056341121957 0.0
    vertex 1.280171247680001 0.8514628464298617 0.0
  endloop
endfacet
facet normal -0.06162889004511797 -0.9980991333088146 0.0
  outer loop
    vertex 1.280171247680001 0.8514628464298617 0.0
    vertex 1.2407985268534207 0.8538939647442865 -0.0625
    vertex 1.280171247680001 0.8514628464298617 -0.0625
  endloop
endfacet
facet normal -0.06162889004511797 -0.9980991333088146 0.0
  outer loop
    vertex 1.2407985268534207 0.8538939647442865 -0.0625
    vertex 1.280171247680001 0.8514628464298617 0.0
    vertex 1.2407985268534207 0.8538939647442865 0.0
  endloop
endfacet
facet normal 0.010171226375868557 -0.999948271739099 0.0
  outer loop
    vertex 1.2407985268534207 0.8538939647442865 0.0
    vertex 1.1838476810268403 0.8533146748334275 -0.0625
    vertex 1.2407985268534207 0.8538939647442865 -0.0625
  endloop
endfacet
facet normal 0.010171226375868557 -0.999948271739099 0.0
  outer loop
    vertex 1.1838476810268403 0.8533146748334275 -0.0625
    vertex 1.2407985268534207 0.8538939647442865 0.0
    vertex 1.1838476810268403 0.8533146748334275 0.0
  endloop
endfacet
facet normal 0.7853175380420631 -0.6190931791285967 0.0
  outer loop
    vertex 1.1838476810268403 0.8533146748334275 -0.0625
    vertex 1.0599841022180883 0.6961941572078196 0.0
    vertex 1.0599841022180883 0.6961941572078196 -0.0625
  endloop
endfacet
facet normal 0.7853175380420631 -0.6190931791285967 0.0
  outer loop
    vertex 1.0599841022180883 0.6961941572078196 0.0
    vertex 1.1838476810268403 0.8533146748334275 -0.0625
    vertex 1.1838476810268403 0.8533146748334275 0.0
  endloop
endfacet
facet normal 0.7689550048332969 -0.6393029020283142 0.0
  outer loop
    vertex 1.0599841022180883 0.6961941572078196 -0.0625
    vertex 0.9623856229332423 0.5788024812556316 0.0
    vertex 0.9623856229332423 0.5788024812556316 -0.0625
  endloop
endfacet
facet normal 0.7689550048332969 -0.6393029020283142 0.0
  outer loop
    vertex 0.9623856229332423 0.5788024812556316 0.0
    vertex 1.0599841022180883 0.6961941572078196 -0.0625
    vertex 1.0599841022180883 0.6961941572078196 0.0
  endloop
endfacet
facet normal 0.6865513644894835 -0.7270813048879942 0.0
  outer loop
    vertex 0.9623856229332423 0.5788024812556316 0.0
    vertex 0.9209450270560138 0.5396719226049023 -0.0625
    vertex 0.9623856229332423 0.5788024812556316 -0.0625
  endloop
endfacet
facet normal 0.6865513644894835 -0.7270813048879942 0.0
  outer loop
    vertex 0.9209450270560138 0.5396719226049023 -0.0625
    vertex 0.9623856229332423 0.5788024812556316 0.0
    vertex 0.9209450270560138 0.5396719226049023 0.0
  endloop
endfacet
facet normal -0.35814053768769855 -0.9336676899543898 0.0
  outer loop
    vertex 0.9209450270560138 0.5396719226049023 0.0
    vertex 0.9096061392926427 0.5440213452143026 -0.0625
    vertex 0.9209450270560138 0.5396719226049023 -0.0625
  endloop
endfacet
facet normal -0.35814053768769855 -0.9336676899543898 0.0
  outer loop
    vertex 0.9096061392926427 0.5440213452143026 -0.0625
    vertex 0.9209450270560138 0.5396719226049023 0.0
    vertex 0.9096061392926427 0.5440213452143026 0.0
  endloop
endfacet
facet normal -0.781756158765842 -0.623584243091241 0.0
  outer loop
    vertex 0.8991979140090122 0.5570696130425036 0.0
    vertex 0.9096061392926427 0.5440213452143026 -0.0625
    vertex 0.9096061392926427 0.5440213452143026 0.0
  endloop
endfacet
facet normal -0.781756158765842 -0.623584243091241 0.0
  outer loop
    vertex 0.9096061392926427 0.5440213452143026 -0.0625
    vertex 0.8991979140090122 0.5570696130425036 0.0
    vertex 0.8991979140090122 0.5570696130425036 -0.0625
  endloop
endfacet
facet normal -0.9475033883984746 -0.31974572549669766 0.0
  outer loop
    vertex 0.8898817926556897 0.5846761010895052 0.0
    vertex 0.8991979140090122 0.5570696130425036 -0.0625
    vertex 0.8991979140090122 0.5570696130425036 0.0
  endloop
endfacet
facet normal -0.9475033883984746 -0.31974572549669766 0.0
  outer loop
    vertex 0.8991979140090122 0.5570696130425036 -0.0625
    vertex 0.8898817926556897 0.5846761010895052 0.0
    vertex 0.8898817926556897 0.5846761010895052 -0.0625
  endloop
endfacet
facet normal -0.8286079704831782 0.559829287597343 0.0
  outer loop
    vertex 0.9416214034235179 0.6612563279938812 0.0
    vertex 0.8898817926556897 0.5846761010895052 -0.0625
    vertex 0.8898817926556897 0.5846761010895052 0.0
  endloop
endfacet
facet normal -0.8286079704831782 0.559829287597343 0.0
  outer loop
    vertex 0.8898817926556897 0.5846761010895052 -0.0625
    vertex 0.9416214034235179 0.6612563279938812 0.0
    vertex 0.9416214034235179 0.6612563279938812 -0.0625
  endloop
endfacet
facet normal -0.7777535258322411 0.6285693701219601 0.0
  outer loop
    vertex 1.0968402357270026 0.8533146748334275 0.0
    vertex 0.9416214034235179 0.6612563279938812 -0.0625
    vertex 0.9416214034235179 0.6612563279938812 0.0
  endloop
endfacet
facet normal -0.7777535258322411 0.6285693701219601 0.0
  outer loop
    vertex 0.9416214034235179 0.6612563279938812 -0.0625
    vertex 1.0968402357270026 0.8533146748334275 0.0
    vertex 1.0968402357270026 0.8533146748334275 -0.0625
  endloop
endfacet
facet normal 0.0 -1.0 0.0
  outer loop
    vertex 1.0968402357270026 0.8533146748334275 0.0
    vertex 1.0493859458161436 0.8533146748334275 -0.0625
    vertex 1.0968402357270026 0.8533146748334275 -0.0625
  endloop
endfacet
facet normal 0.0 -1.0 0.0
  outer loop
    vertex 1.0493859458161436 0.8533146748334275 -0.0625
    vertex 1.0968402357270026 0.8533146748334275 0.0
    vertex 1.0493859458161436 0.8533146748334275 0.0
  endloop
endfacet
facet normal 0.037343574919503617 -0.9993024854428371 0.0
  outer loop
    vertex 1.0493859458161436 0.8533146748334275 0.0
    vertex 0.7543469466265162 0.8422891734152751 -0.0625
    vertex 1.0493859458161436 0.8533146748334275 -0.0625
  endloop
endfacet
facet normal 0.037343574919503617 -0.9993024854428371 0.0
  outer loop
    vertex 0.7543469466265162 0.8422891734152751 -0.0625
    vertex 1.0493859458161436 0.8533146748334275 0.0
    vertex 0.7543469466265162 0.8422891734152751 0.0
  endloop
endfacet
facet normal 0.6492554351125537 -0.7605704306484765 0.0
  outer loop
    vertex 0.7543469466265162 0.8422891734152751 0.0
    vertex 0.5489174490576345 0.6669257718755668 -0.0625
    vertex 0.7543469466265162 0.8422891734152751 -0.0625
  endloop
endfacet
facet normal 0.6492554351125537 -0.7605704306484765 0.0
  outer loop
    vertex 0.5489174490576345 0.6669257718755668 -0.0625
    vertex 0.7543469466265162 0.8422891734152751 0.0
    vertex 0.5489174490576345 0.6669257718755668 0.0
  endloop
endfacet
facet normal 0.6667714739678627 -0.7452622367346434 0.0
  outer loop
    vertex 0.5489174490576345 0.6669257718755668 0.0
    vertex 0.4692983242602277 0.5956921059517418 -0.0625
    vertex 0.5489174490576345 0.6669257718755668 -0.0625
  endloop
endfacet
facet normal 0.6667714739678627 -0.7452622367346434 0.0
  outer loop
    vertex 0.4692983242602277 0.5956921059517418 -0.0625
    vertex 0.5489174490576345 0.6669257718755668 0.0
    vertex 0.4692983242602277 0.5956921059517418 0.0
  endloop
endfacet
facet normal 0.6298420025832793 -0.7767232787691409 0.0
  outer loop
    vertex 0.4692983242602277 0.5956921059517418 0.0
    vertex 0.4174851151840527 0.5536769684416122 -0.0625
    vertex 0.4692983242602277 0.5956921059517418 -0.0625
  endloop
endfacet
facet normal 0.6298420025832793 -0.7767232787691409 0.0
  outer loop
    vertex 0.4174851151840527 0.5536769684416122 -0.0625
    vertex 0.4692983242602277 0.5956921059517418 0.0
    vertex 0.4174851151840527 0.5536769684416122 0.0
  endloop
endfacet
facet normal 0.4660101391915014 -0.8847793793769823 0.0
  outer loop
    vertex 0.4174851151840527 0.5536769684416122 0.0
    vertex 0.3908947586200332 0.5396719226049023 -0.0625
    vertex 0.4174851151840527 0.5536769684416122 -0.0625
  endloop
endfacet
facet normal 0.4660101391915014 -0.8847793793769823 0.0
  outer loop
    vertex 0.3908947586200332 0.5396719226049023 -0.0625
    vertex 0.4174851151840527 0.5536769684416122 0.0
    vertex 0.3908947586200332 0.5396719226049023 0.0
  endloop
endfacet
facet normal -0.3264945497683961 -0.9451990843052762 0.0
  outer loop
    vertex 0.3908947586200332 0.5396719226049023 0.0
    vertex 0.37813138746930386 0.5440806986887758 -0.0625
    vertex 0.3908947586200332 0.5396719226049023 -0.0625
  endloop
endfacet
facet normal -0.3264945497683961 -0.9451990843052762 0.0
  outer loop
    vertex 0.37813138746930386 0.5440806986887758 -0.0625
    vertex 0.3908947586200332 0.5396719226049023 0.0
    vertex 0.37813138746930386 0.5440806986887758 0.0
  endloop
endfacet
facet normal -0.9519627560980555 -0.30621383215360215 0.0
  outer loop
    vertex 0.3738769304190608 0.5573070269403966 0.0
    vertex 0.37813138746930386 0.5440806986887758 -0.0625
    vertex 0.37813138746930386 0.5440806986887758 0.0
  endloop
endfacet
facet normal -0.9519627560980555 -0.30621383215360215 0.0
  outer loop
    vertex 0.37813138746930386 0.5440806986887758 -0.0625
    vertex 0.3738769304190608 0.5573070269403966 0.0
    vertex 0.3738769304190608 0.5573070269403966 -0.0625
  endloop
endfacet
facet normal -0.8627189462795288 0.5056837151128556 0.0
  outer loop
    vertex 0.3848549490576345 0.5760360158104331 0.0
    vertex 0.3738769304190608 0.5573070269403966 -0.0625
    vertex 0.3738769304190608 0.5573070269403966 0.0
  endloop
endfacet
facet normal -0.8627189462795288 0.5056837151128556 0.0
  outer loop
    vertex 0.3738769304190608 0.5573070269403966 -0.0625
    vertex 0.3848549490576345 0.5760360158104331 0.0
    vertex 0.3848549490576345 0.5760360158104331 -0.0625
  endloop
endfacet
facet normal -0.7209139401891158 0.6930245961298949 0.0
  outer loop
    vertex 0.41778900497335575 0.6102954348111421 0.0
    vertex 0.3848549490576345 0.5760360158104331 -0.0625
    vertex 0.3848549490576345 0.5760360158104331 0.0
  endloop
endfacet
facet normal -0.7209139401891158 0.6930245961298949 0.0
  outer loop
    vertex 0.3848549490576345 0.5760360158104331 -0.0625
    vertex 0.41778900497335575 0.6102954348111421 0.0
    vertex 0.41778900497335575 0.6102954348111421 -0.0625
  endloop
endfacet
facet normal -0.6579894766401776 0.7530271234363243 0.0
  outer loop
    vertex 0.41778900497335575 0.6102954348111421 0.0
    vertex 0.5495252286362406 0.7254055632045782 -0.0625
    vertex 0.41778900497335575 0.6102954348111421 -0.0625
  endloop
endfacet
facet normal -0.6579894766401776 0.7530271234363243 0.0
  outer loop
    vertex 0.5495252286362406 0.7254055632045782 -0.0625
    vertex 0.41778900497335575 0.6102954348111421 0.0
    vertex 0.5495252286362406 0.7254055632045782 0.0
  endloop
endfacet
facet normal -0.6393376915832367 0.7689260797508549 0.0
  outer loop
    vertex 0.5495252286362406 0.7254055632045782 0.0
    vertex 0.6887067521370511 0.8411305935935571 -0.0625
    vertex 0.5495252286362406 0.7254055632045782 -0.0625
  endloop
endfacet
facet normal -0.6393376915832367 0.7689260797508549 0.0
  outer loop
    vertex 0.6887067521370511 0.8411305935935571 -0.0625
    vertex 0.5495252286362406 0.7254055632045782 0.0
    vertex 0.6887067521370511 0.8411305935935571 0.0
  endloop
endfacet
facet normal 0.06452045590464317 -0.997916384658483 0.0
  outer loop
    vertex 0.6887067521370511 0.8411305935935571 0.0
    vertex 0.4771994587821078 0.8274555530749186 -0.0625
    vertex 0.6887067521370511 0.8411305935935571 -0.0625
  endloop
endfacet
facet normal 0.06452045590464317 -0.997916384658483 0.0
  outer loop
    vertex 0.4771994587821078 0.8274555530749186 -0.0625
    vertex 0.6887067521370511 0.8411305935935571 0.0
    vertex 0.4771994587821078 0.8274555530749186 0.0
  endloop
endfacet
facet normal 0.12706091889506266 -0.991894915245331 0.0
  outer loop
    vertex 0.4771994587821078 0.8274555530749186 0.0
    vertex 0.4220434620235989 0.820390115473622 -0.0625
    vertex 0.4771994587821078 0.8274555530749186 -0.0625
  endloop
endfacet
facet normal 0.12706091889506266 -0.991894915245331 0.0
  outer loop
    vertex 0.4220434620235989 0.820390115473622 -0.0625
    vertex 0.4771994587821078 0.8274555530749186 0.0
    vertex 0.4220434620235989 0.820390115473622 0.0
  endloop
endfacet
facet normal 0.319250638699791 -0.9476703169825335 0.0
  outer loop
    vertex 0.4220434620235989 0.820390115473622 0.0
    vertex 0.40061923187773174 0.8131727329776738 -0.0625
    vertex 0.4220434620235989 0.820390115473622 -0.0625
  endloop
endfacet
facet normal 0.319250638699791 -0.9476703169825335 0.0
  outer loop
    vertex 0.40061923187773174 0.8131727329776738 -0.0625
    vertex 0.4220434620235989 0.820390115473622 0.0
    vertex 0.40061923187773174 0.8131727329776738 0.0
  endloop
endfacet
facet normal 0.3923661289506323 0.919809121966235 0.0
  outer loop
    vertex 0.40061923187773174 0.8131727329776738 0.0
    vertex 0.42234735181290195 0.8039040944039298 -0.0625
    vertex 0.40061923187773174 0.8131727329776738 -0.0625
  endloop
endfacet
facet normal 0.3923661289506323 0.919809121966235 0.0
  outer loop
    vertex 0.42234735181290195 0.8039040944039298 -0.0625
    vertex 0.40061923187773174 0.8131727329776738 0.0
    vertex 0.42234735181290195 0.8039040944039298 0.0
  endloop
endfacet
facet normal 0.04424567117576306 0.9990206807580143 0.0
  outer loop
    vertex 0.42234735181290195 0.8039040944039298 0.0
    vertex 0.48753171161841247 0.8010171414055506 -0.0625
    vertex 0.42234735181290195 0.8039040944039298 -0.0625
  endloop
endfacet
facet normal 0.04424567117576306 0.9990206807580143 0.0
  outer loop
    vertex 0.48753171161841247 0.8010171414055506 -0.0625
    vertex 0.42234735181290195 0.8039040944039298 0.0
    vertex 0.48753171161841247 0.8010171414055506 0.0
  endloop
endfacet
facet normal -0.014923710973497673 0.9998886352243332 0.0
  outer loop
    vertex 0.48753171161841247 0.8010171414055506 0.0
    vertex 0.5689741751516377 0.802232700562763 -0.0625
    vertex 0.48753171161841247 0.8010171414055506 -0.0625
  endloop
endfacet
facet normal -0.014923710973497673 0.9998886352243332 0.0
  outer loop
    vertex 0.5689741751516377 0.802232700562763 -0.0625
    vertex 0.48753171161841247 0.8010171414055506 0.0
    vertex 0.5689741751516377 0.802232700562763 0.0
  endloop
endfacet
facet normal 0.12252657200264708 0.9924652332214364 0.0
  outer loop
    vertex 0.5689741751516377 0.802232700562763 0.0
    vertex 0.5812817116184125 0.8007132516162475 -0.0625
    vertex 0.5689741751516377 0.802232700562763 -0.0625
  endloop
endfacet
facet normal 0.12252657200264708 0.9924652332214364 0.0
  outer loop
    vertex 0.5812817116184125 0.8007132516162475 -0.0625
    vertex 0.5689741751516377 0.802232700562763 0.0
    vertex 0.5812817116184125 0.8007132516162475 0.0
  endloop
endfacet
facet normal 0.8151804082662732 0.5792071321891954 0.0
  outer loop
    vertex 0.5812817116184125 0.8007132516162475 -0.0625
    vertex 0.5853842237740041 0.794939345619489 0.0
    vertex 0.5853842237740041 0.794939345619489 -0.0625
  endloop
endfacet
facet normal 0.8151804082662732 0.5792071321891954 0.0
  outer loop
    vertex 0.5853842237740041 0.794939345619489 0.0
    vertex 0.5812817116184125 0.8007132516162475 -0.0625
    vertex 0.5812817116184125 0.8007132516162475 0.0
  endloop
endfacet
facet normal 0.6685877216496051 -0.743633282242928 0.0
  outer loop
    vertex 0.5853842237740041 0.794939345619489 0.0
    vertex 0.5771032270154952 0.7874940457815636 -0.0625
    vertex 0.5853842237740041 0.794939345619489 -0.0625
  endloop
endfacet
facet normal 0.6685877216496051 -0.743633282242928 0.0
  outer loop
    vertex 0.5771032270154952 0.7874940457815636 -0.0625
    vertex 0.5853842237740041 0.794939345619489 0.0
    vertex 0.5771032270154952 0.7874940457815636 0.0
  endloop
endfacet
facet normal 0.2093248647807068 -0.9778461540470152 0.0
  outer loop
    vertex 0.5771032270154952 0.7874940457815636 0.0
    vertex 0.5522602367399684 0.7821759744687596 -0.0625
    vertex 0.5771032270154952 0.7874940457815636 -0.0625
  endloop
endfacet
facet normal 0.2093248647807068 -0.9778461540470152 0.0
  outer loop
    vertex 0.5522602367399684 0.7821759744687596 -0.0625
    vertex 0.5771032270154952 0.7874940457815636 0.0
    vertex 0.5522602367399684 0.7821759744687596 0.0
  endloop
endfacet
facet normal 0.04277427115738476 -0.9990847620332094 0.0
  outer loop
    vertex 0.5522602367399684 0.7821759744687596 0.0
    vertex 0.4528882756378614 0.7779215174185166 -0.0625
    vertex 0.5522602367399684 0.7821759744687596 -0.0625
  endloop
endfacet
facet normal 0.04277427115738476 -0.9990847620332094 0.0
  outer loop
    vertex 0.4528882756378614 0.7779215174185166 -0.0625
    vertex 0.5522602367399684 0.7821759744687596 0.0
    vertex 0.4528882756378614 0.7779215174185166 0.0
  endloop
endfacet
facet normal -0.08393218465842676 -0.9964714689234528 0.0
  outer loop
    vertex 0.4528882756378614 0.7779215174185166 0.0
    vertex 0.36810302442230225 0.7850629274671389 -0.0625
    vertex 0.4528882756378614 0.7779215174185166 -0.0625
  endloop
endfacet
facet normal -0.08393218465842676 -0.9964714689234528 0.0
  outer loop
    vertex 0.36810302442230225 0.7850629274671389 -0.0625
    vertex 0.4528882756378614 0.7779215174185166 0.0
    vertex 0.36810302442230225 0.7850629274671389 0.0
  endloop
endfacet
facet normal -0.3881308359680442 -0.9216042828517818 0.0
  outer loop
    vertex 0.36810302442230225 0.7850629274671389 0.0
    vertex 0.34690671161841247 0.7939896900279169 -0.0625
    vertex 0.36810302442230225 0.7850629274671389 -0.0625
  endloop
endfacet
facet normal -0.3881308359680442 -0.9216042828517818 0.0
  outer loop
    vertex 0.34690671161841247 0.7939896900279169 -0.0625
    vertex 0.36810302442230225 0.7850629274671389 0.0
    vertex 0.34690671161841247 0.7939896900279169 0.0
  endloop
endfacet
facet normal -0.8705135547093446 -0.49214444126425005 0.0
  outer loop
    vertex 0.33984127401711584 0.8064871576130059 0.0
    vertex 0.34690671161841247 0.7939896900279169 -0.0625
    vertex 0.34690671161841247 0.7939896900279169 0.0
  endloop
endfacet
facet normal -0.8705135547093446 -0.49214444126425005 0.0
  outer loop
    vertex 0.34690671161841247 0.7939896900279169 -0.0625
    vertex 0.33984127401711584 0.8064871576130059 0.0
    vertex 0.33984127401711584 0.8064871576130059 -0.0625
  endloop
endfacet
facet normal -0.9704002412583667 0.2415023224851139 0.0
  outer loop
    vertex 0.3440197586200332 0.8232770684720011 0.0
    vertex 0.33984127401711584 0.8064871576130059 -0.0625
    vertex 0.33984127401711584 0.8064871576130059 0.0
  endloop
endfacet
facet normal -0.9704002412583667 0.2415023224851139 0.0
  outer loop
    vertex 0.33984127401711584 0.8064871576130059 -0.0625
    vertex 0.3440197586200332 0.8232770684720011 0.0
    vertex 0.3440197586200332 0.8232770684720011 -0.0625
  endloop
endfacet
facet normal -0.7426884441750644 0.6696371217971882 0.0
  outer loop
    vertex 0.35655521242878524 0.837180026332617 0.0
    vertex 0.3440197586200332 0.8232770684720011 -0.0625
    vertex 0.3440197586200332 0.8232770684720011 0.0
  endloop
endfacet
facet normal -0.7426884441750644 0.6696371217971882 0.0
  outer loop
    vertex 0.3440197586200332 0.8232770684720011 -0.0625
    vertex 0.35655521242878524 0.837180026332617 0.0
    vertex 0.35655521242878524 0.837180026332617 -0.0625
  endloop
endfacet
facet normal -0.46640916207406613 0.8845691004852972 0.0
  outer loop
    vertex 0.35655521242878524 0.837180026332617 0.0
    vertex 0.37744763544337195 0.8481960311948537 -0.0625
    vertex 0.35655521242878524 0.837180026332617 -0.0625
  endloop
endfacet
facet normal -0.46640916207406613 0.8845691004852972 0.0
  outer loop
    vertex 0.37744763544337195 0.8481960311948537 -0.0625
    vertex 0.35655521242878524 0.837180026332617 0.0
    vertex 0.37744763544337195 0.8481960311948537 0.0
  endloop
endfacet
facet normal -0.26777293277127917 0.9634820478218927 0.0
  outer loop
    vertex 0.37744763544337195 0.8481960311948537 0.0
    vertex 0.40669702766379334 0.856325083058711 -0.0625
    vertex 0.37744763544337195 0.8481960311948537 -0.0625
  endloop
endfacet
facet normal -0.26777293277127917 0.9634820478218927 0.0
  outer loop
    vertex 0.40669702766379334 0.856325083058711 -0.0625
    vertex 0.37744763544337195 0.8481960311948537 0.0
    vertex 0.40669702766379334 0.856325083058711 0.0
  endloop
endfacet
facet normal -0.09694381708766103 0.9952898554333177 0.0
  outer loop
    vertex 0.40669702766379334 0.856325083058711 0.0
    vertex 0.5002950827691418 0.8654417767378034 -0.0625
    vertex 0.40669702766379334 0.856325083058711 -0.0625
  endloop
endfacet
facet normal -0.09694381708766103 0.9952898554333177 0.0
  outer loop
    vertex 0.5002950827691418 0.8654417767378034 -0.0625
    vertex 0.40669702766379334 0.856325083058711 0.0
    vertex 0.5002950827691418 0.8654417767378034 0.0
  endloop
endfacet
facet normal -0.06651901052377399 0.997785157856609 0.0
  outer loop
    vertex 0.5002950827691418 0.8654417767378034 0.0
    vertex 0.7373291184255437 0.8812440457815636 -0.0625
    vertex 0.5002950827691418 0.8654417767378034 -0.0625
  endloop
endfacet
facet normal -0.06651901052377399 0.997785157856609 0.0
  outer loop
    vertex 0.7373291184255437 0.8812440457815636 -0.0625
    vertex 0.5002950827691418 0.8654417767378034 0.0
    vertex 0.7373291184255437 0.8812440457815636 0.0
  endloop
endfacet
facet normal -0.6160304568600147 0.7877223344687149 0.0
  outer loop
    vertex 0.7373291184255437 0.8812440457815636 0.0
    vertex 0.9116099125908599 1.0175386162839946 -0.0625
    vertex 0.7373291184255437 0.8812440457815636 -0.0625
  endloop
endfacet
facet normal -0.6160304568600147 0.7877223344687149 0.0
  outer loop
    vertex 0.9116099125908599 1.0175386162839946 -0.0625
    vertex 0.7373291184255437 0.8812440457815636 0.0
    vertex 0.9116099125908599 1.0175386162839946 0.0
  endloop
endfacet
facet normal -0.5881020222456971 0.8087867527541001 0.0
  outer loop
    vertex 0.9116099125908599 1.0175386162839946 0.0
    vertex 1.147580333984701 1.189122388569246 -0.0625
    vertex 0.9116099125908599 1.0175386162839946 -0.0625
  endloop
endfacet
facet normal -0.5881020222456971 0.8087867527541001 0.0
  outer loop
    vertex 1.147580333984701 1.189122388569246 -0.0625
    vertex 0.9116099125908599 1.0175386162839946 0.0
    vertex 1.147580333984701 1.189122388569246 0.0
  endloop
endfacet
facet normal -0.5670329588460638 0.8236951035318094 0.0
  outer loop
    vertex 1.147580333984701 1.189122388569246 0.0
    vertex 1.300322939333161 1.2942706298070903 -0.0625
    vertex 1.147580333984701 1.189122388569246 -0.0625
  endloop
endfacet
facet normal -0.5670329588460638 0.8236951035318094 0.0
  outer loop
    vertex 1.300322939333161 1.2942706298070903 -0.0625
    vertex 1.147580333984701 1.189122388569246 0.0
    vertex 1.300322939333161 1.2942706298070903 0.0
  endloop
endfacet
facet normal -0.535403944538189 0.8445961260702939 0.0
  outer loop
    vertex 1.300322939333161 1.2942706298070903 0.0
    vertex 1.4188019709376993 1.3693765164055507 -0.0625
    vertex 1.300322939333161 1.2942706298070903 -0.0625
  endloop
endfacet
facet normal -0.535403944538189 0.8445961260702939 0.0
  outer loop
    vertex 1.4188019709376993 1.3693765164055507 -0.0625
    vertex 1.300322939333161 1.2942706298070903 0.0
    vertex 1.4188019709376993 1.3693765164055507 0.0
  endloop
endfacet
facet normal -0.47179921845284045 0.8817060153289696 0.0
  outer loop
    vertex 1.4188019709376993 1.3693765164055507 0.0
    vertex 1.503017428798315 1.414440048364627 -0.0625
    vertex 1.4188019709376993 1.3693765164055507 -0.0625
  endloop
endfacet
facet normal -0.47179921845284045 0.8817060153289696 0.0
  outer loop
    vertex 1.503017428798315 1.414440048364627 -0.0625
    vertex 1.4188019709376993 1.3693765164055507 0.0
    vertex 1.503017428798315 1.414440048364627 0.0
  endloop
endfacet
facet normal -0.28797417902168754 0.9576381739554795 0.0
  outer loop
    vertex 1.503017428798315 1.414440048364627 0.0
    vertex 1.552969312915009 1.4294612256843189 -0.0625
    vertex 1.503017428798315 1.414440048364627 -0.0625
  endloop
endfacet
facet normal -0.28797417902168754 0.9576381739554795 0.0
  outer loop
    vertex 1.552969312915009 1.4294612256843189 -0.0625
    vertex 1.503017428798315 1.414440048364627 0.0
    vertex 1.552969312915009 1.4294612256843189 0.0
  endloop
endfacet
facet normal 0.1822071480975637 0.983260166579605 0.0
  outer loop
    vertex 1.552969312915009 1.4294612256843189 0.0
    vertex 1.5673281054595796 1.4268004094236828 -0.0625
    vertex 1.552969312915009 1.4294612256843189 -0.0625
  endloop
endfacet
facet normal 0.1822071480975637 0.983260166579605 0.0
  outer loop
    vertex 1.5673281054595796 1.4268004094236828 -0.0625
    vertex 1.552969312915009 1.4294612256843189 0.0
    vertex 1.5673281054595796 1.4268004094236828 0.0
  endloop
endfacet
facet normal 0.6141966765248181 0.7891529905828578 0.0
  outer loop
    vertex 1.5673281054595796 1.4268004094236828 0.0
    vertex 1.5775843858485583 1.4188179606417743 -0.0625
    vertex 1.5673281054595796 1.4268004094236828 -0.0625
  endloop
endfacet
facet normal 0.6141966765248181 0.7891529905828578 0.0
  outer loop
    vertex 1.5775843858485583 1.4188179606417743 -0.0625
    vertex 1.5673281054595796 1.4268004094236828 0.0
    vertex 1.5775843858485583 1.4188179606417743 0.0
  endloop
endfacet
facet normal 0.9685331183863737 0.2488847094314285 0.0
  outer loop
    vertex 1.5775843858485583 1.4188179606417743 -0.0625
    vertex 1.5857894101597414 1.3868881655141405 0.0
    vertex 1.5857894101597414 1.3868881655141405 -0.0625
  endloop
endfacet
facet normal 0.9685331183863737 0.2488847094314285 0.0
  outer loop
    vertex 1.5857894101597414 1.3868881655141405 0.0
    vertex 1.5775843858485583 1.4188179606417743 -0.0625
    vertex 1.5775843858485583 1.4188179606417743 0.0
  endloop
endfacet
facet normal 0.9725242620032484 -0.2328015459893621 0.0
  outer loop
    vertex 1.5857894101597414 1.3868881655141405 -0.0625
    vertex 1.5804386944359772 1.3645356470275118 0.0
    vertex 1.5804386944359772 1.3645356470275118 -0.0625
  endloop
endfacet
facet normal 0.9725242620032484 -0.2328015459893621 0.0
  outer loop
    vertex 1.5804386944359772 1.3645356470275118 0.0
    vertex 1.5857894101597414 1.3868881655141405 -0.0625
    vertex 1.5857894101597414 1.3868881655141405 0.0
  endloop
endfacet
facet normal 0.8890344876848713 -0.4578402338227809 0.0
  outer loop
    vertex 1.5804386944359772 1.3645356470275118 -0.0625
    vertex 1.564386547264685 1.3333655763731358 0.0
    vertex 1.564386547264685 1.3333655763731358 -0.0625
  endloop
endfacet
facet normal 0.8890344876848713 -0.4578402338227809 0.0
  outer loop
    vertex 1.564386547264685 1.3333655763731358 0.0
    vertex 1.5804386944359772 1.3645356470275118 -0.0625
    vertex 1.5804386944359772 1.3645356470275118 0.0
  endloop
endfacet
facet normal 0.8103305734590187 -0.585973004256662 0.0
  outer loop
    vertex 1.564386547264685 1.3333655763731358 -0.0625
    vertex 1.5001779585795147 1.2445727785611422 0.0
    vertex 1.5001779585795147 1.2445727785611422 -0.0625
  endloop
endfacet
facet normal 0.8103305734590187 -0.585973004256662 0.0
  outer loop
    vertex 1.5001779585795147 1.2445727785611422 0.0
    vertex 1.564386547264685 1.3333655763731358 -0.0625
    vertex 1.564386547264685 1.3333655763731358 0.0
  endloop
endfacet
facet normal 0.7779494005764471 -0.628326929347093 0.0
  outer loop
    vertex 1.5001779585795147 1.2445727785611422 -0.0625
    vertex 1.213600390710795 0.8897529598820497 0.0
    vertex 1.213600390710795 0.8897529598820497 -0.0625
  endloop
endfacet
facet normal 0.7779494005764471 -0.628326929347093 0.0
  outer loop
    vertex 1.213600390710795 0.8897529598820497 0.0
    vertex 1.5001779585795147 1.2445727785611422 -0.0625
    vertex 1.5001779585795147 1.2445727785611422 0.0
  endloop
endfacet
facet normal -0.7723409630310325 0.635208183845499 0.0
  outer loop
    vertex 1.4114421401030155 1.2360163816810774 0.0
    vertex 1.1266594213023673 0.8897529598820497 -0.0625
    vertex 1.1266594213023673 0.8897529598820497 0.0
  endloop
endfacet
facet normal -0.7723409630310325 0.635208183845499 0.0
  outer loop
    vertex 1.1266594213023673 0.8897529598820497 -0.0625
    vertex 1.4114421401030155 1.2360163816810774 0.0
    vertex 1.4114421401030155 1.2360163816810774 -0.0625
  endloop
endfacet
facet normal -0.7736730533699967 0.6335850428230976 0.0
  outer loop
    vertex 1.4642714806621728 1.3005264860165717 0.0
    vertex 1.4114421401030155 1.2360163816810774 -0.0625
    vertex 1.4114421401030155 1.2360163816810774 0.0
  endloop
endfacet
facet normal -0.7736730533699967 0.6335850428230976 0.0
  outer loop
    vertex 1.4114421401030155 1.2360163816810774 -0.0625
    vertex 1.4642714806621728 1.3005264860165717 0.0
    vertex 1.4642714806621728 1.3005264860165717 -0.0625
  endloop
endfacet
facet normal -0.8278689723222025 0.5609215316478595 0.0
  outer loop
    vertex 1.5092091832553653 1.3668504325319688 0.0
    vertex 1.4642714806621728 1.3005264860165717 -0.0625
    vertex 1.4642714806621728 1.3005264860165717 0.0
  endloop
endfacet
facet normal -0.8278689723222025 0.5609215316478595 0.0
  outer loop
    vertex 1.4642714806621728 1.3005264860165717 -0.0625
    vertex 1.5092091832553653 1.3668504325319688 0.0
    vertex 1.5092091832553653 1.3668504325319688 -0.0625
  endloop
endfacet
facet normal -0.9339085898481545 0.35751188205125695 0.0
  outer loop
    vertex 1.510139845735106 1.3692815508463934 0.0
    vertex 1.5092091832553653 1.3668504325319688 -0.0625
    vertex 1.5092091832553653 1.3668504325319688 0.0
  endloop
endfacet
facet normal -0.9339085898481545 0.35751188205125695 0.0
  outer loop
    vertex 1.5092091832553653 1.3668504325319688 -0.0625
    vertex 1.510139845735106 1.3692815508463934 0.0
    vertex 1.510139845735106 1.3692815508463934 -0.0625
  endloop
endfacet
facet normal -0.7398925831798523 -0.6727250295294842 0.0
  outer loop
    vertex 1.5040525533931288 1.3759766227669767 0.0
    vertex 1.510139845735106 1.3692815508463934 -0.0625
    vertex 1.510139845735106 1.3692815508463934 0.0
  endloop
endfacet
facet normal -0.7398925831798523 -0.6727250295294842 0.0
  outer loop
    vertex 1.510139845735106 1.3692815508463934 -0.0625
    vertex 1.5040525533931288 1.3759766227669767 0.0
    vertex 1.5040525533931288 1.3759766227669767 -0.0625
  endloop
endfacet
facet normal 0.4153430714647413 -0.9096648465155915 0.0
  outer loop
    vertex 1.5040525533931288 1.3759766227669767 0.0
    vertex 1.4707326998933317 1.3607631401899916 -0.0625
    vertex 1.5040525533931288 1.3759766227669767 -0.0625
  endloop
endfacet
facet normal 0.4153430714647413 -0.9096648465155915 0.0
  outer loop
    vertex 1.4707326998933317 1.3607631401899916 -0.0625
    vertex 1.5040525533931288 1.3759766227669767 0.0
    vertex 1.4707326998933317 1.3607631401899916 0.0
  endloop
endfacet
facet normal 0.5388246106877037 -0.8424179716252763 0.0
  outer loop
    vertex 1.4707326998933317 1.3607631401899916 0.0
    vertex 1.3993767658120917 1.3151226924590351 -0.0625
    vertex 1.4707326998933317 1.3607631401899916 -0.0625
  endloop
endfacet
facet normal 0.5388246106877037 -0.8424179716252763 0.0
  outer loop
    vertex 1.3993767658120917 1.3151226924590351 -0.0625
    vertex 1.4707326998933317 1.3607631401899916 0.0
    vertex 1.3993767658120917 1.3151226924590351 0.0
  endloop
endfacet
facet normal 0.5793849959479225 -0.8150540021804848 0.0
  outer loop
    vertex 1.3993767658120917 1.3151226924590351 0.0
    vertex 1.1425566559052844 1.1325609015352103 -0.0625
    vertex 1.3993767658120917 1.3151226924590351 -0.0625
  endloop
endfacet
facet normal 0.5793849959479225 -0.8150540021804848 0.0
  outer loop
    vertex 1.1425566559052844 1.1325609015352103 -0.0625
    vertex 1.3993767658120917 1.3151226924590351 0.0
    vertex 1.1425566559052844 1.1325609015352103 0.0
  endloop
endfacet
facet normal 0.596442443884966 -0.8026558485007937 0.0
  outer loop
    vertex 1.1425566559052844 1.1325609015352103 0.0
    vertex 0.8084393291224644 0.8842829436745944 -0.0625
    vertex 1.1425566559052844 1.1325609015352103 -0.0625
  endloop
endfacet
facet normal 0.596442443884966 -0.8026558485007937 0.0
  outer loop
    vertex 0.8084393291224644 0.8842829436745944 -0.0625
    vertex 1.1425566559052844 1.1325609015352103 0.0
    vertex 0.8084393291224644 0.8842829436745944 0.0
  endloop
endfacet
facet normal -0.017186872834181254 0.9998522947926769 0.0
  outer loop
    vertex 0.8084393291224644 0.8842829436745944 0.0
    vertex 1.1266594213023673 0.8897529598820497 -0.0625
    vertex 0.8084393291224644 0.8842829436745944 -0.0625
  endloop
endfacet
facet normal -0.017186872834181254 0.9998522947926769 0.0
  outer loop
    vertex 1.1266594213023673 0.8897529598820497 -0.0625
    vertex 0.8084393291224644 0.8842829436745944 0.0
    vertex 1.1266594213023673 0.8897529598820497 0.0
  endloop
endfacet
endsolid cube trinket box smoothed
