solid pendant cube
facet normal -0.0 1.0 -0.0
  outer loop
    vertex 0.0 0.7499999999999991 0.0
    vertex 0.09374999999999963 0.7499999999999991 0.10262111734138046
    vertex 0.7499999999999996 0.7499999999999991 0.0
  endloop
endfacet
facet normal -0.0 1.0 -0.0
  outer loop
    vertex 0.09374999999999963 0.7499999999999991 0.10262111734138046
    vertex 0.0 0.7499999999999991 0.0
    vertex 0.0 0.7499999999999991 0.7499999999999998
  endloop
endfacet
facet normal -0.0 1.0 -0.0
  outer loop
    vertex 0.09374999999999963 0.7499999999999991 0.10262111734138046
    vertex 0.0 0.7499999999999991 0.7499999999999998
    vertex 0.09374999999999963 0.7499999999999991 0.6473788826586183
  endloop
endfacet
facet normal -0.0 1.0 -0.0
  outer loop
    vertex 0.09374999999999963 0.7499999999999991 0.6473788826586183
    vertex 0.0 0.7499999999999991 0.7499999999999998
    vertex 0.6562499999999987 0.7499999999999991 0.6473788826586183
  endloop
endfacet
facet normal -0.0 1.0 -0.0
  outer loop
    vertex 0.7499999999999996 0.7499999999999991 0.0
    vertex 0.6562499999999987 0.7499999999999991 0.10262111734138046
    vertex 0.7499999999999996 0.7499999999999991 0.7499999999999998
  endloop
endfacet
facet normal -0.0 1.0 -0.0
  outer loop
    vertex 0.6562499999999987 0.7499999999999991 0.10262111734138046
    vertex 0.7499999999999996 0.7499999999999991 0.0
    vertex 0.09374999999999963 0.7499999999999991 0.10262111734138046
  endloop
endfacet
facet normal -0.0 1.0 -0.0
  outer loop
    vertex 0.7499999999999996 0.7499999999999991 0.7499999999999998
    vertex 0.6562499999999987 0.7499999999999991 0.10262111734138046
    vertex 0.6562499999999987 0.7499999999999991 0.6473788826586183
  endloop
endfacet
facet normal -0.0 1.0 -0.0
  outer loop
    vertex 0.7499999999999996 0.7499999999999991 0.7499999999999998
    vertex 0.6562499999999987 0.7499999999999991 0.6473788826586183
    vertex 0.0 0.7499999999999991 0.7499999999999998
  endloop
endfacet
facet normal 1.0 -0.0 -0.0
  outer loop
    vertex 0.7499999999999996 0.0 0.0
    vertex 0.7499999999999996 0.10262111734138024 0.10262111734138046
    vertex 0.7499999999999996 0.0 0.7499999999999998
  endloop
endfacet
facet normal 1.0 -0.0 -0.0
  outer loop
    vertex 0.7499999999999996 0.10262111734138024 0.10262111734138046
    vertex 0.7499999999999996 0.0 0.0
    vertex 0.7499999999999996 0.7499999999999991 0.0
  endloop
endfacet
facet normal 1.0 -0.0 -0.0
  outer loop
    vertex 0.7499999999999996 0.10262111734138024 0.10262111734138046
    vertex 0.7499999999999996 0.7499999999999991 0.0
    vertex 0.7499999999999996 0.6473788826586206 0.10262111734138046
  endloop
endfacet
facet normal 1.0 -0.0 -0.0
  outer loop
    vertex 0.7499999999999996 0.6473788826586206 0.10262111734138046
    vertex 0.7499999999999996 0.7499999999999991 0.0
    vertex 0.7499999999999996 0.6473788826586206 0.6473788826586183
  endloop
endfacet
facet normal 1.0 -0.0 -0.0
  outer loop
    vertex 0.7499999999999996 0.0 0.7499999999999998
    vertex 0.7499999999999996 0.10262111734138024 0.6473788826586183
    vertex 0.7499999999999996 0.7499999999999991 0.7499999999999998
  endloop
endfacet
facet normal 1.0 -0.0 -0.0
  outer loop
    vertex 0.7499999999999996 0.10262111734138024 0.6473788826586183
    vertex 0.7499999999999996 0.0 0.7499999999999998
    vertex 0.7499999999999996 0.10262111734138024 0.10262111734138046
  endloop
endfacet
facet normal 1.0 -0.0 -0.0
  outer loop
    vertex 0.7499999999999996 0.7499999999999991 0.7499999999999998
    vertex 0.7499999999999996 0.10262111734138024 0.6473788826586183
    vertex 0.7499999999999996 0.6473788826586206 0.6473788826586183
  endloop
endfacet
facet normal 1.0 -0.0 -0.0
  outer loop
    vertex 0.7499999999999996 0.7499999999999991 0.7499999999999998
    vertex 0.7499999999999996 0.6473788826586206 0.6473788826586183
    vertex 0.7499999999999996 0.7499999999999991 0.0
  endloop
endfacet
facet normal -0.0 -0.0 1.0
  outer loop
    vertex 0.0 0.0 0.7499999999999998
    vertex 0.09374999999999963 0.10262111734138024 0.7499999999999998
    vertex 0.0 0.7499999999999991 0.7499999999999998
  endloop
endfacet
facet normal -0.0 -0.0 1.0
  outer loop
    vertex 0.09374999999999963 0.10262111734138024 0.7499999999999998
    vertex 0.0 0.0 0.7499999999999998
    vertex 0.7499999999999996 0.0 0.7499999999999998
  endloop
endfacet
facet normal -0.0 -0.0 1.0
  outer loop
    vertex 0.09374999999999963 0.10262111734138024 0.7499999999999998
    vertex 0.7499999999999996 0.0 0.7499999999999998
    vertex 0.6562499999999987 0.10262111734138024 0.7499999999999998
  endloop
endfacet
facet normal -0.0 -0.0 1.0
  outer loop
    vertex 0.6562499999999987 0.10262111734138024 0.7499999999999998
    vertex 0.7499999999999996 0.0 0.7499999999999998
    vertex 0.6562499999999987 0.6473788826586206 0.7499999999999998
  endloop
endfacet
facet normal -0.0 -0.0 1.0
  outer loop
    vertex 0.0 0.7499999999999991 0.7499999999999998
    vertex 0.09374999999999963 0.6473788826586206 0.7499999999999998
    vertex 0.7499999999999996 0.7499999999999991 0.7499999999999998
  endloop
endfacet
facet normal -0.0 -0.0 1.0
  outer loop
    vertex 0.09374999999999963 0.6473788826586206 0.7499999999999998
    vertex 0.0 0.7499999999999991 0.7499999999999998
    vertex 0.09374999999999963 0.10262111734138024 0.7499999999999998
  endloop
endfacet
facet normal -0.0 -0.0 1.0
  outer loop
    vertex 0.7499999999999996 0.7499999999999991 0.7499999999999998
    vertex 0.09374999999999963 0.6473788826586206 0.7499999999999998
    vertex 0.6562499999999987 0.6473788826586206 0.7499999999999998
  endloop
endfacet
facet normal -0.0 -0.0 1.0
  outer loop
    vertex 0.7499999999999996 0.7499999999999991 0.7499999999999998
    vertex 0.6562499999999987 0.6473788826586206 0.7499999999999998
    vertex 0.7499999999999996 0.0 0.7499999999999998
  endloop
endfacet
facet normal 0.0 0.0 -1.0
  outer loop
    vertex 0.6562499999999987 0.10262111734138024 0.6473788826586183
    vertex 0.09374999999999963 0.0 0.6473788826586183
    vertex 0.09374999999999963 0.10262111734138024 0.6473788826586183
  endloop
endfacet
facet normal 0.0 0.0 -1.0
  outer loop
    vertex 0.09374999999999963 0.0 0.6473788826586183
    vertex 0.6562499999999987 0.10262111734138024 0.6473788826586183
    vertex 0.6562499999999987 0.0 0.6473788826586183
  endloop
endfacet
facet normal -0.0 1.0 -0.0
  outer loop
    vertex -3.3306690738754657e-16 0.10262111734138024 0.6473788826586183
    vertex 0.09374999999999963 0.10262111734138024 0.10262111734138046
    vertex -3.3306690738754657e-16 0.10262111734138024 0.10262111734138046
  endloop
endfacet
facet normal -0.0 1.0 -0.0
  outer loop
    vertex 0.09374999999999963 0.10262111734138024 0.10262111734138046
    vertex -3.3306690738754657e-16 0.10262111734138024 0.6473788826586183
    vertex 0.09374999999999963 0.10262111734138024 0.6473788826586183
  endloop
endfacet
facet normal -0.0 1.0 -0.0
  outer loop
    vertex 0.6562499999999987 0.10262111734138024 0.6473788826586183
    vertex 0.7499999999999996 0.10262111734138024 0.10262111734138046
    vertex 0.6562499999999987 0.10262111734138024 0.10262111734138046
  endloop
endfacet
facet normal -0.0 1.0 -0.0
  outer loop
    vertex 0.7499999999999996 0.10262111734138024 0.10262111734138046
    vertex 0.6562499999999987 0.10262111734138024 0.6473788826586183
    vertex 0.7499999999999996 0.10262111734138024 0.6473788826586183
  endloop
endfacet
facet normal 1.0 -0.0 -0.0
  outer loop
    vertex 0.09374999999999963 0.10262111734138024 0.10262111734138046
    vertex 0.09374999999999963 0.0 0.6473788826586183
    vertex 0.09374999999999963 0.0 0.10262111734138046
  endloop
endfacet
facet normal 1.0 -0.0 -0.0
  outer loop
    vertex 0.09374999999999963 0.0 0.6473788826586183
    vertex 0.09374999999999963 0.10262111734138024 0.10262111734138046
    vertex 0.09374999999999963 0.10262111734138024 0.6473788826586183
  endloop
endfacet
facet normal -1.0 0.0 0.0
  outer loop
    vertex 0.6562499999999987 0.10262111734138024 0.6473788826586183
    vertex 0.6562499999999987 0.0 0.10262111734138046
    vertex 0.6562499999999987 0.0 0.6473788826586183
  endloop
endfacet
facet normal -1.0 0.0 0.0
  outer loop
    vertex 0.6562499999999987 0.0 0.10262111734138046
    vertex 0.6562499999999987 0.10262111734138024 0.6473788826586183
    vertex 0.6562499999999987 0.10262111734138024 0.10262111734138046
  endloop
endfacet
facet normal 0.0 0.0 -1.0
  outer loop
    vertex 0.7499999999999996 0.6473788826586206 0.6473788826586183
    vertex 0.6562499999999987 0.10262111734138024 0.6473788826586183
    vertex 0.6562499999999987 0.6473788826586206 0.6473788826586183
  endloop
endfacet
facet normal 0.0 0.0 -1.0
  outer loop
    vertex 0.6562499999999987 0.10262111734138024 0.6473788826586183
    vertex 0.7499999999999996 0.6473788826586206 0.6473788826586183
    vertex 0.7499999999999996 0.10262111734138024 0.6473788826586183
  endloop
endfacet
facet normal 0.0 0.0 -1.0
  outer loop
    vertex 0.09374999999999963 0.6473788826586206 0.6473788826586183
    vertex -3.3306690738754657e-16 0.10262111734138024 0.6473788826586183
    vertex -3.3306690738754657e-16 0.6473788826586206 0.6473788826586183
  endloop
endfacet
facet normal 0.0 0.0 -1.0
  outer loop
    vertex -3.3306690738754657e-16 0.10262111734138024 0.6473788826586183
    vertex 0.09374999999999963 0.6473788826586206 0.6473788826586183
    vertex 0.09374999999999963 0.10262111734138024 0.6473788826586183
  endloop
endfacet
facet normal -0.0 1.0 -0.0
  outer loop
    vertex 0.09374999999999963 0.10262111734138024 0.7499999999999998
    vertex 0.6562499999999987 0.10262111734138024 0.6473788826586183
    vertex 0.09374999999999963 0.10262111734138024 0.6473788826586183
  endloop
endfacet
facet normal -0.0 1.0 -0.0
  outer loop
    vertex 0.6562499999999987 0.10262111734138024 0.6473788826586183
    vertex 0.09374999999999963 0.10262111734138024 0.7499999999999998
    vertex 0.6562499999999987 0.10262111734138024 0.7499999999999998
  endloop
endfacet
facet normal 1.0 -0.0 -0.0
  outer loop
    vertex 0.09374999999999963 0.6473788826586206 0.6473788826586183
    vertex 0.09374999999999963 0.10262111734138024 0.7499999999999998
    vertex 0.09374999999999963 0.10262111734138024 0.6473788826586183
  endloop
endfacet
facet normal 1.0 -0.0 -0.0
  outer loop
    vertex 0.09374999999999963 0.10262111734138024 0.7499999999999998
    vertex 0.09374999999999963 0.6473788826586206 0.6473788826586183
    vertex 0.09374999999999963 0.6473788826586206 0.7499999999999998
  endloop
endfacet
facet normal -1.0 0.0 0.0
  outer loop
    vertex 0.6562499999999987 0.6473788826586206 0.7499999999999998
    vertex 0.6562499999999987 0.10262111734138024 0.6473788826586183
    vertex 0.6562499999999987 0.10262111734138024 0.7499999999999998
  endloop
endfacet
facet normal -1.0 0.0 0.0
  outer loop
    vertex 0.6562499999999987 0.10262111734138024 0.6473788826586183
    vertex 0.6562499999999987 0.6473788826586206 0.7499999999999998
    vertex 0.6562499999999987 0.6473788826586206 0.6473788826586183
  endloop
endfacet
facet normal 0.0 -1.0 0.0
  outer loop
    vertex 0.09374999999999963 0.6473788826586206 0.6473788826586183
    vertex -3.3306690738754657e-16 0.6473788826586206 0.10262111734138046
    vertex 0.09374999999999963 0.6473788826586206 0.10262111734138046
  endloop
endfacet
facet normal 0.0 -1.0 0.0
  outer loop
    vertex -3.3306690738754657e-16 0.6473788826586206 0.10262111734138046
    vertex 0.09374999999999963 0.6473788826586206 0.6473788826586183
    vertex -3.3306690738754657e-16 0.6473788826586206 0.6473788826586183
  endloop
endfacet
facet normal 0.0 -1.0 0.0
  outer loop
    vertex 0.6562499999999987 0.6473788826586206 0.7499999999999998
    vertex 0.09374999999999963 0.6473788826586206 0.6473788826586183
    vertex 0.6562499999999987 0.6473788826586206 0.6473788826586183
  endloop
endfacet
facet normal 0.0 -1.0 0.0
  outer loop
    vertex 0.09374999999999963 0.6473788826586206 0.6473788826586183
    vertex 0.6562499999999987 0.6473788826586206 0.7499999999999998
    vertex 0.09374999999999963 0.6473788826586206 0.7499999999999998
  endloop
endfacet
facet normal 0.0 -1.0 0.0
  outer loop
    vertex 0.7499999999999996 0.6473788826586206 0.6473788826586183
    vertex 0.6562499999999987 0.6473788826586206 0.10262111734138046
    vertex 0.7499999999999996 0.6473788826586206 0.10262111734138046
  endloop
endfacet
facet normal 0.0 -1.0 0.0
  outer loop
    vertex 0.6562499999999987 0.6473788826586206 0.10262111734138046
    vertex 0.7499999999999996 0.6473788826586206 0.6473788826586183
    vertex 0.6562499999999987 0.6473788826586206 0.6473788826586183
  endloop
endfacet
facet normal 0.0 0.0 -1.0
  outer loop
    vertex 0.6562499999999987 0.7499999999999991 0.6473788826586183
    vertex 0.09374999999999963 0.6473788826586206 0.6473788826586183
    vertex 0.09374999999999963 0.7499999999999991 0.6473788826586183
  endloop
endfacet
facet normal 0.0 0.0 -1.0
  outer loop
    vertex 0.09374999999999963 0.6473788826586206 0.6473788826586183
    vertex 0.6562499999999987 0.7499999999999991 0.6473788826586183
    vertex 0.6562499999999987 0.6473788826586206 0.6473788826586183
  endloop
endfacet
facet normal 1.0 -0.0 -0.0
  outer loop
    vertex 0.09374999999999963 0.7499999999999991 0.10262111734138046
    vertex 0.09374999999999963 0.6473788826586206 0.6473788826586183
    vertex 0.09374999999999963 0.6473788826586206 0.10262111734138046
  endloop
endfacet
facet normal 1.0 -0.0 -0.0
  outer loop
    vertex 0.09374999999999963 0.6473788826586206 0.6473788826586183
    vertex 0.09374999999999963 0.7499999999999991 0.10262111734138046
    vertex 0.09374999999999963 0.7499999999999991 0.6473788826586183
  endloop
endfacet
facet normal -1.0 0.0 0.0
  outer loop
    vertex 0.6562499999999987 0.7499999999999991 0.6473788826586183
    vertex 0.6562499999999987 0.6473788826586206 0.10262111734138046
    vertex 0.6562499999999987 0.6473788826586206 0.6473788826586183
  endloop
endfacet
facet normal -1.0 0.0 0.0
  outer loop
    vertex 0.6562499999999987 0.6473788826586206 0.10262111734138046
    vertex 0.6562499999999987 0.7499999999999991 0.6473788826586183
    vertex 0.6562499999999987 0.7499999999999991 0.10262111734138046
  endloop
endfacet
facet normal -0.0 -0.0 1.0
  outer loop
    vertex 0.09374999999999963 0.10262111734138024 0.10262111734138046
    vertex -3.3306690738754657e-16 0.6473788826586206 0.10262111734138046
    vertex -3.3306690738754657e-16 0.10262111734138024 0.10262111734138046
  endloop
endfacet
facet normal -0.0 -0.0 1.0
  outer loop
    vertex -3.3306690738754657e-16 0.6473788826586206 0.10262111734138046
    vertex 0.09374999999999963 0.10262111734138024 0.10262111734138046
    vertex 0.09374999999999963 0.6473788826586206 0.10262111734138046
  endloop
endfacet
facet normal -0.0 -0.0 1.0
  outer loop
    vertex 0.6562499999999987 0.0 0.10262111734138046
    vertex 0.09374999999999963 0.10262111734138024 0.10262111734138046
    vertex 0.09374999999999963 0.0 0.10262111734138046
  endloop
endfacet
facet normal -0.0 -0.0 1.0
  outer loop
    vertex 0.09374999999999963 0.10262111734138024 0.10262111734138046
    vertex 0.6562499999999987 0.0 0.10262111734138046
    vertex 0.6562499999999987 0.10262111734138024 0.10262111734138046
  endloop
endfacet
facet normal -0.0 -0.0 1.0
  outer loop
    vertex 0.7499999999999996 0.10262111734138024 0.10262111734138046
    vertex 0.6562499999999987 0.6473788826586206 0.10262111734138046
    vertex 0.6562499999999987 0.10262111734138024 0.10262111734138046
  endloop
endfacet
facet normal -0.0 -0.0 1.0
  outer loop
    vertex 0.6562499999999987 0.6473788826586206 0.10262111734138046
    vertex 0.7499999999999996 0.10262111734138024 0.10262111734138046
    vertex 0.7499999999999996 0.6473788826586206 0.10262111734138046
  endloop
endfacet
facet normal -0.0 -0.0 1.0
  outer loop
    vertex 0.6562499999999987 0.6473788826586206 0.10262111734138046
    vertex 0.09374999999999963 0.7499999999999991 0.10262111734138046
    vertex 0.09374999999999963 0.6473788826586206 0.10262111734138046
  endloop
endfacet
facet normal -0.0 -0.0 1.0
  outer loop
    vertex 0.09374999999999963 0.7499999999999991 0.10262111734138046
    vertex 0.6562499999999987 0.6473788826586206 0.10262111734138046
    vertex 0.6562499999999987 0.7499999999999991 0.10262111734138046
  endloop
endfacet
facet normal -1.0 0.0 0.0
  outer loop
    vertex 0.6562499999999987 0.6473788826586206 0.10262111734138046
    vertex 0.6562499999999987 0.10262111734138024 0.0
    vertex 0.6562499999999987 0.10262111734138024 0.10262111734138046
  endloop
endfacet
facet normal -1.0 0.0 0.0
  outer loop
    vertex 0.6562499999999987 0.10262111734138024 0.0
    vertex 0.6562499999999987 0.6473788826586206 0.10262111734138046
    vertex 0.6562499999999987 0.6473788826586206 0.0
  endloop
endfacet
facet normal 0.0 -1.0 0.0
  outer loop
    vertex 0.6562499999999987 0.6473788826586206 0.10262111734138046
    vertex 0.09374999999999963 0.6473788826586206 0.0
    vertex 0.6562499999999987 0.6473788826586206 0.0
  endloop
endfacet
facet normal 0.0 -1.0 0.0
  outer loop
    vertex 0.09374999999999963 0.6473788826586206 0.0
    vertex 0.6562499999999987 0.6473788826586206 0.10262111734138046
    vertex 0.09374999999999963 0.6473788826586206 0.10262111734138046
  endloop
endfacet
facet normal 1.0 -0.0 -0.0
  outer loop
    vertex 0.09374999999999963 0.6473788826586206 0.0
    vertex 0.09374999999999963 0.10262111734138024 0.10262111734138046
    vertex 0.09374999999999963 0.10262111734138024 0.0
  endloop
endfacet
facet normal 1.0 -0.0 -0.0
  outer loop
    vertex 0.09374999999999963 0.10262111734138024 0.10262111734138046
    vertex 0.09374999999999963 0.6473788826586206 0.0
    vertex 0.09374999999999963 0.6473788826586206 0.10262111734138046
  endloop
endfacet
facet normal -0.0 1.0 -0.0
  outer loop
    vertex 0.09374999999999963 0.10262111734138024 0.10262111734138046
    vertex 0.6562499999999987 0.10262111734138024 0.0
    vertex 0.09374999999999963 0.10262111734138024 0.0
  endloop
endfacet
facet normal -0.0 1.0 -0.0
  outer loop
    vertex 0.6562499999999987 0.10262111734138024 0.0
    vertex 0.09374999999999963 0.10262111734138024 0.10262111734138046
    vertex 0.6562499999999987 0.10262111734138024 0.10262111734138046
  endloop
endfacet
facet normal -1.0 0.0 0.0
  outer loop
    vertex 0.0 0.0 0.7499999999999998
    vertex -3.3306690738754657e-16 0.10262111734138024 0.6473788826586183
    vertex 0.0 0.0 0.0
  endloop
endfacet
facet normal -1.0 0.0 0.0
  outer loop
    vertex -3.3306690738754657e-16 0.10262111734138024 0.6473788826586183
    vertex 0.0 0.0 0.7499999999999998
    vertex 0.0 0.7499999999999991 0.7499999999999998
  endloop
endfacet
facet normal -1.0 0.0 0.0
  outer loop
    vertex -3.3306690738754657e-16 0.10262111734138024 0.6473788826586183
    vertex 0.0 0.7499999999999991 0.7499999999999998
    vertex -3.3306690738754657e-16 0.6473788826586206 0.6473788826586183
  endloop
endfacet
facet normal -1.0 0.0 0.0
  outer loop
    vertex -3.3306690738754657e-16 0.6473788826586206 0.6473788826586183
    vertex 0.0 0.7499999999999991 0.7499999999999998
    vertex -3.3306690738754657e-16 0.6473788826586206 0.10262111734138046
  endloop
endfacet
facet normal -1.0 0.0 0.0
  outer loop
    vertex 0.0 0.0 0.0
    vertex -3.3306690738754657e-16 0.10262111734138024 0.10262111734138046
    vertex 0.0 0.7499999999999991 0.0
  endloop
endfacet
facet normal -1.0 0.0 0.0
  outer loop
    vertex -3.3306690738754657e-16 0.10262111734138024 0.10262111734138046
    vertex 0.0 0.0 0.0
    vertex -3.3306690738754657e-16 0.10262111734138024 0.6473788826586183
  endloop
endfacet
facet normal -1.0 0.0 0.0
  outer loop
    vertex 0.0 0.7499999999999991 0.0
    vertex -3.3306690738754657e-16 0.10262111734138024 0.10262111734138046
    vertex -3.3306690738754657e-16 0.6473788826586206 0.10262111734138046
  endloop
endfacet
facet normal -1.0 0.0 0.0
  outer loop
    vertex 0.0 0.7499999999999991 0.0
    vertex -3.3306690738754657e-16 0.6473788826586206 0.10262111734138046
    vertex 0.0 0.7499999999999991 0.7499999999999998
  endloop
endfacet
facet normal 0.0 -1.0 0.0
  outer loop
    vertex 0.7499999999999996 0.0 0.0
    vertex 0.6562499999999987 0.0 0.10262111734138046
    vertex 0.0 0.0 0.0
  endloop
endfacet
facet normal 0.0 -1.0 0.0
  outer loop
    vertex 0.6562499999999987 0.0 0.10262111734138046
    vertex 0.7499999999999996 0.0 0.0
    vertex 0.7499999999999996 0.0 0.7499999999999998
  endloop
endfacet
facet normal 0.0 -1.0 0.0
  outer loop
    vertex 0.6562499999999987 0.0 0.10262111734138046
    vertex 0.7499999999999996 0.0 0.7499999999999998
    vertex 0.6562499999999987 0.0 0.6473788826586183
  endloop
endfacet
facet normal 0.0 -1.0 0.0
  outer loop
    vertex 0.6562499999999987 0.0 0.6473788826586183
    vertex 0.7499999999999996 0.0 0.7499999999999998
    vertex 0.09374999999999963 0.0 0.6473788826586183
  endloop
endfacet
facet normal 0.0 -1.0 0.0
  outer loop
    vertex 0.0 0.0 0.0
    vertex 0.09374999999999963 0.0 0.10262111734138046
    vertex 0.0 0.0 0.7499999999999998
  endloop
endfacet
facet normal 0.0 -1.0 0.0
  outer loop
    vertex 0.09374999999999963 0.0 0.10262111734138046
    vertex 0.0 0.0 0.0
    vertex 0.6562499999999987 0.0 0.10262111734138046
  endloop
endfacet
facet normal 0.0 -1.0 0.0
  outer loop
    vertex 0.0 0.0 0.7499999999999998
    vertex 0.09374999999999963 0.0 0.10262111734138046
    vertex 0.09374999999999963 0.0 0.6473788826586183
  endloop
endfacet
facet normal 0.0 -1.0 0.0
  outer loop
    vertex 0.0 0.0 0.7499999999999998
    vertex 0.09374999999999963 0.0 0.6473788826586183
    vertex 0.7499999999999996 0.0 0.7499999999999998
  endloop
endfacet
facet normal 0.0 0.0 -1.0
  outer loop
    vertex 0.0 0.7499999999999991 0.0
    vertex 0.09374999999999963 0.6473788826586206 0.0
    vertex 0.0 0.0 0.0
  endloop
endfacet
facet normal 0.0 0.0 -1.0
  outer loop
    vertex 0.09374999999999963 0.6473788826586206 0.0
    vertex 0.0 0.7499999999999991 0.0
    vertex 0.7499999999999996 0.7499999999999991 0.0
  endloop
endfacet
facet normal 0.0 0.0 -1.0
  outer loop
    vertex 0.09374999999999963 0.6473788826586206 0.0
    vertex 0.7499999999999996 0.7499999999999991 0.0
    vertex 0.6562499999999987 0.6473788826586206 0.0
  endloop
endfacet
facet normal 0.0 0.0 -1.0
  outer loop
    vertex 0.6562499999999987 0.6473788826586206 0.0
    vertex 0.7499999999999996 0.7499999999999991 0.0
    vertex 0.6562499999999987 0.10262111734138024 0.0
  endloop
endfacet
facet normal 0.0 0.0 -1.0
  outer loop
    vertex 0.0 0.0 0.0
    vertex 0.09374999999999963 0.10262111734138024 0.0
    vertex 0.7499999999999996 0.0 0.0
  endloop
endfacet
facet normal 0.0 0.0 -1.0
  outer loop
    vertex 0.09374999999999963 0.10262111734138024 0.0
    vertex 0.0 0.0 0.0
    vertex 0.09374999999999963 0.6473788826586206 0.0
  endloop
endfacet
facet normal 0.0 0.0 -1.0
  outer loop
    vertex 0.7499999999999996 0.0 0.0
    vertex 0.09374999999999963 0.10262111734138024 0.0
    vertex 0.6562499999999987 0.10262111734138024 0.0
  endloop
endfacet
facet normal 0.0 0.0 -1.0
  outer loop
    vertex 0.7499999999999996 0.0 0.0
    vertex 0.6562499999999987 0.10262111734138024 0.0
    vertex 0.7499999999999996 0.7499999999999991 0.0
  endloop
endfacet
endsolid pendant cube
